<?xml version="1.0" encoding="utf-8"?>
<!-- Generator: Adobe Illustrator 16.0.0, SVG Export Plug-In . SVG Version: 6.00 Build 0)  -->
<!DOCTYPE svg PUBLIC "-//W3C//DTD SVG 1.0//EN" "http://www.w3.org/TR/2001/REC-SVG-20010904/DTD/svg10.dtd">
<svg version="1.0" id="Layer_1" xmlns="http://www.w3.org/2000/svg" xmlns:xlink="http://www.w3.org/1999/xlink" x="0px" y="0px"
	 width="241.393px" height="49.816px" viewBox="0 0 241.393 49.816" enable-background="new 0 0 241.393 49.816"
	 xml:space="preserve">
<g>
	<g>
		<linearGradient id="SVGID_1_" gradientUnits="userSpaceOnUse" x1="159.9229" y1="92.8525" x2="81.4678" y2="-43.0356">
			<stop  offset="0" style="stop-color:#603913"/>
			<stop  offset="0.1168" style="stop-color:#744B23"/>
			<stop  offset="0.2913" style="stop-color:#8F6439"/>
			<stop  offset="0.4676" style="stop-color:#A47A4D"/>
			<stop  offset="0.6441" style="stop-color:#B48A5D"/>
			<stop  offset="0.8213" style="stop-color:#BF9567"/>
			<stop  offset="1" style="stop-color:#C49A6C"/>
		</linearGradient>
		<path fill="url(#SVGID_1_)" d="M4,47.816c-1.104,0-2-0.896-2-2V4c0-1.104,0.896-2,2-2h233.393c1.104,0,2,0.896,2,2v41.816
			c0,1.104-0.896,2-2,2H4z"/>
		<path fill="#3C2415" d="M237.393,4v18.477v23.34H4V24.908V4H237.393 M237.393,0H4C1.791,0,0,1.791,0,4v20.908v20.908
			c0,2.209,1.791,4,4,4h233.393c2.209,0,4-1.791,4-4v-23.34V4C241.393,1.791,239.602,0,237.393,0L237.393,0z"/>
	</g>
	<g>
		<path fill="#3C2415" d="M32.516,19.298h-1.172c-0.299-0.83-0.812-1.67-1.543-2.521c-0.73-0.85-1.455-1.352-2.174-1.505
			c-0.309-0.071-0.738-0.114-1.289-0.132c-0.549-0.015-1.004-0.022-1.365-0.022h-3.176v8.436h2.252c0.564,0,1.078-0.066,1.541-0.2
			c0.463-0.133,0.885-0.39,1.266-0.771c0.236-0.237,0.475-0.654,0.717-1.25c0.24-0.596,0.398-1.115,0.471-1.557h1.172v9.129h-1.172
			c-0.062-0.432-0.219-0.974-0.471-1.627s-0.492-1.103-0.717-1.35c-0.34-0.369-0.74-0.625-1.203-0.763
			c-0.463-0.14-0.998-0.209-1.604-0.209h-2.252v6.308c0,0.658,0.049,1.18,0.146,1.564c0.098,0.387,0.279,0.682,0.547,0.889
			c0.258,0.195,0.609,0.322,1.057,0.385c0.447,0.062,1.057,0.093,1.828,0.093c0.359,0,0.791-0.006,1.295-0.016
			s0.945-0.04,1.326-0.093c0.432-0.051,0.836-0.127,1.211-0.23s0.654-0.252,0.84-0.448c0.494-0.504,1.049-1.272,1.666-2.305
			c0.617-1.034,1.023-1.808,1.219-2.322h1.125l-0.416,6.817H13.115v-1.203c0.287-0.021,0.678-0.062,1.172-0.122
			c0.492-0.063,0.842-0.134,1.047-0.217c0.391-0.165,0.654-0.373,0.787-0.625c0.135-0.251,0.201-0.572,0.201-0.964V17.03
			c0-0.369-0.057-0.677-0.17-0.917c-0.113-0.241-0.385-0.46-0.818-0.655c-0.266-0.124-0.641-0.237-1.125-0.34
			c-0.482-0.103-0.848-0.169-1.094-0.199v-1.204h19.4V19.298z"/>
		<path fill="#3C2415" d="M56.08,35.599h-9.27v-1.127c0.195-0.019,0.432-0.045,0.709-0.076c0.277-0.029,0.488-0.081,0.633-0.153
			c0.217-0.114,0.369-0.278,0.463-0.495c0.092-0.214,0.139-0.533,0.139-0.955v-7.218c0-1.049-0.193-1.838-0.58-2.367
			s-0.955-0.794-1.709-0.794c-0.412,0-0.797,0.062-1.152,0.185c-0.355,0.124-0.703,0.304-1.043,0.539
			c-0.299,0.207-0.539,0.417-0.719,0.634c-0.182,0.216-0.334,0.406-0.457,0.57v8.281c0,0.36,0.051,0.661,0.154,0.902
			c0.102,0.241,0.273,0.424,0.51,0.547c0.164,0.093,0.369,0.176,0.615,0.248c0.248,0.07,0.488,0.122,0.727,0.152v1.127h-9.377
			v-1.127c0.258-0.019,0.516-0.048,0.779-0.083c0.262-0.037,0.484-0.086,0.67-0.146c0.328-0.114,0.555-0.288,0.68-0.524
			c0.123-0.237,0.184-0.545,0.184-0.926v-8.976c0-0.319-0.082-0.632-0.246-0.94c-0.164-0.31-0.381-0.562-0.648-0.756
			c-0.184-0.124-0.418-0.227-0.701-0.31c-0.283-0.08-0.594-0.138-0.934-0.169v-1.125l7.357-0.4l0.23,0.229v2.237h0.062
			c0.287-0.257,0.637-0.565,1.047-0.925c0.412-0.359,0.793-0.654,1.143-0.88c0.381-0.247,0.879-0.458,1.496-0.632
			c0.617-0.175,1.275-0.264,1.975-0.264c1.674,0,2.932,0.477,3.77,1.427c0.838,0.952,1.256,2.213,1.256,3.787v7.557
			c0,0.381,0.059,0.683,0.172,0.909c0.111,0.227,0.322,0.406,0.631,0.54c0.164,0.073,0.367,0.145,0.609,0.217
			c0.242,0.07,0.516,0.122,0.826,0.152V35.599z"/>
		<path fill="#3C2415" d="M75.094,21.425c-0.463,0.073-0.912,0.248-1.35,0.525c-0.438,0.278-0.799,0.71-1.088,1.296
			c-0.719,1.501-1.426,3.015-2.119,4.541s-1.375,3.005-2.043,4.435c-0.207,0.432-0.439,0.986-0.703,1.665
			c-0.262,0.679-0.48,1.295-0.654,1.851h-2.838c-1.182-2.745-2.191-5.021-3.031-6.832c-0.838-1.81-1.725-3.752-2.66-5.829
			c-0.215-0.483-0.553-0.864-1.01-1.142c-0.457-0.276-0.924-0.447-1.395-0.51v-1.124h9.498v1.124
			c-0.348,0.012-0.76,0.089-1.232,0.233c-0.473,0.144-0.709,0.327-0.709,0.554c0,0.062,0.021,0.155,0.062,0.277
			c0.041,0.125,0.092,0.264,0.154,0.417c0.33,0.781,0.826,1.907,1.492,3.375c0.664,1.47,1.367,3.017,2.109,4.641
			c0.514-1.121,1.004-2.217,1.471-3.291c0.467-1.073,1.045-2.442,1.732-4.108c0.092-0.246,0.146-0.446,0.162-0.601
			c0.016-0.155,0.023-0.258,0.023-0.308c0-0.187-0.09-0.348-0.271-0.486c-0.18-0.14-0.395-0.26-0.641-0.362
			c-0.258-0.104-0.506-0.18-0.742-0.231c-0.238-0.051-0.434-0.088-0.588-0.109v-1.124h6.369V21.425z"/>
		<path fill="#3C2415" d="M85.164,35.599h-9.746v-1.127c0.268-0.019,0.529-0.045,0.787-0.076c0.256-0.029,0.477-0.081,0.662-0.153
			c0.33-0.125,0.561-0.302,0.693-0.532c0.135-0.232,0.201-0.537,0.201-0.918v-8.976c0-0.36-0.082-0.677-0.246-0.948
			c-0.166-0.273-0.371-0.49-0.617-0.656c-0.186-0.123-0.465-0.24-0.84-0.354c-0.377-0.113-0.719-0.185-1.027-0.216v-1.125l7.559-0.4
			l0.23,0.229V32.59c0,0.361,0.076,0.667,0.23,0.919c0.154,0.251,0.375,0.439,0.664,0.562c0.205,0.093,0.432,0.176,0.678,0.248
			c0.248,0.07,0.504,0.122,0.771,0.152V35.599z M82.912,14.563c0,0.782-0.301,1.447-0.902,1.998c-0.6,0.55-1.312,0.823-2.135,0.823
			c-0.834,0-1.551-0.273-2.152-0.823c-0.602-0.551-0.902-1.216-0.902-1.998c0-0.781,0.301-1.449,0.902-2.004
			c0.602-0.557,1.318-0.834,2.152-0.834c0.832,0,1.547,0.277,2.143,0.834C82.613,13.114,82.912,13.782,82.912,14.563z"/>
		<path fill="#3C2415" d="M101.943,23.123c0,0.781-0.242,1.466-0.725,2.059c-0.484,0.591-1.121,0.886-1.912,0.886
			c-0.752,0-1.387-0.189-1.904-0.567c-0.521-0.379-0.779-0.938-0.779-1.675c0-0.357,0.025-0.637,0.076-0.837
			c0.053-0.198,0.098-0.386,0.139-0.561c-0.473,0.021-0.971,0.185-1.496,0.489c-0.523,0.307-0.986,0.714-1.387,1.223v8.467
			c0,0.36,0.057,0.658,0.17,0.895s0.303,0.422,0.57,0.556c0.227,0.113,0.594,0.208,1.102,0.285c0.51,0.076,0.877,0.122,1.104,0.13
			v1.127H86.584v-1.127c0.256-0.019,0.516-0.048,0.777-0.083c0.262-0.037,0.486-0.086,0.672-0.146
			c0.328-0.114,0.555-0.288,0.678-0.524c0.123-0.237,0.186-0.545,0.186-0.926v-8.976c0-0.37-0.088-0.702-0.262-0.994
			c-0.176-0.294-0.387-0.527-0.633-0.702c-0.186-0.124-0.418-0.227-0.703-0.31c-0.281-0.08-0.592-0.138-0.932-0.169v-1.125
			l7.355-0.4l0.232,0.229v2.237h0.061c0.709-0.822,1.463-1.469,2.26-1.937c0.797-0.467,1.627-0.7,2.49-0.7
			c0.957,0,1.725,0.294,2.307,0.886C101.652,21.424,101.943,22.187,101.943,23.123z"/>
		<path fill="#3C2415" d="M118.752,22.12c0.762,0.709,1.342,1.558,1.742,2.544c0.402,0.987,0.604,2.058,0.604,3.208
			c0,1.141-0.199,2.218-0.594,3.231c-0.396,1.013-0.975,1.879-1.736,2.598c-0.812,0.771-1.781,1.363-2.906,1.773
			c-1.127,0.412-2.414,0.617-3.863,0.617c-1.254,0-2.408-0.18-3.463-0.54c-1.053-0.36-1.986-0.9-2.799-1.619
			c-0.781-0.688-1.398-1.539-1.85-2.552c-0.453-1.013-0.68-2.146-0.68-3.401c0-1.232,0.199-2.33,0.594-3.292
			c0.396-0.961,0.99-1.816,1.781-2.567c0.762-0.72,1.699-1.277,2.814-1.673c1.115-0.396,2.361-0.596,3.74-0.596
			c1.439,0,2.707,0.199,3.801,0.596C117.033,20.843,117.971,21.4,118.752,22.12z M114.805,32.807c0.227-0.575,0.393-1.274,0.5-2.097
			c0.109-0.822,0.162-1.778,0.162-2.868c0-0.72-0.051-1.542-0.152-2.468c-0.104-0.926-0.258-1.654-0.463-2.189
			c-0.248-0.648-0.59-1.158-1.025-1.526c-0.438-0.372-0.99-0.557-1.658-0.557c-0.73,0-1.314,0.201-1.75,0.602
			c-0.438,0.401-0.775,0.921-1.012,1.558c-0.215,0.587-0.363,1.272-0.447,2.06c-0.082,0.786-0.123,1.606-0.123,2.459
			c0,1.121,0.037,2.049,0.107,2.784c0.072,0.734,0.248,1.473,0.525,2.212c0.236,0.639,0.576,1.142,1.018,1.513
			c0.441,0.369,1.002,0.554,1.682,0.554c0.617,0,1.146-0.171,1.588-0.517C114.197,33.982,114.547,33.475,114.805,32.807z"/>
		<path fill="#3C2415" d="M143.443,35.599h-9.27v-1.127c0.195-0.019,0.432-0.045,0.711-0.076c0.277-0.029,0.486-0.081,0.631-0.153
			c0.217-0.114,0.371-0.278,0.463-0.495c0.092-0.214,0.139-0.533,0.139-0.955v-7.218c0-1.049-0.193-1.838-0.58-2.367
			s-0.957-0.794-1.709-0.794c-0.412,0-0.795,0.062-1.152,0.185c-0.355,0.124-0.703,0.304-1.043,0.539
			c-0.299,0.207-0.539,0.417-0.719,0.634c-0.18,0.216-0.332,0.406-0.457,0.57v8.281c0,0.36,0.051,0.661,0.154,0.902
			s0.273,0.424,0.51,0.547c0.164,0.093,0.369,0.176,0.617,0.248c0.246,0.07,0.488,0.122,0.725,0.152v1.127h-9.377v-1.127
			c0.258-0.019,0.516-0.048,0.779-0.083c0.262-0.037,0.484-0.086,0.672-0.146c0.328-0.114,0.555-0.288,0.678-0.524
			c0.123-0.237,0.186-0.545,0.186-0.926v-8.976c0-0.319-0.084-0.632-0.248-0.94c-0.164-0.31-0.381-0.562-0.648-0.756
			c-0.184-0.124-0.418-0.227-0.701-0.31c-0.281-0.08-0.594-0.138-0.934-0.169v-1.125l7.357-0.4l0.23,0.229v2.237h0.062
			c0.287-0.257,0.637-0.565,1.049-0.925c0.41-0.359,0.791-0.654,1.141-0.88c0.381-0.247,0.879-0.458,1.496-0.632
			c0.617-0.175,1.275-0.264,1.975-0.264c1.674,0,2.932,0.477,3.77,1.427c0.838,0.952,1.258,2.213,1.258,3.787v7.557
			c0,0.381,0.057,0.683,0.168,0.909c0.115,0.227,0.326,0.406,0.633,0.54c0.164,0.073,0.367,0.145,0.609,0.217
			c0.242,0.07,0.516,0.122,0.826,0.152V35.599z"/>
		<path fill="#3C2415" d="M175.504,35.599h-9.16v-1.127c0.225-0.03,0.459-0.056,0.703-0.076c0.246-0.021,0.449-0.071,0.611-0.153
			c0.225-0.103,0.367-0.275,0.43-0.519c0.061-0.24,0.092-0.551,0.092-0.932v-7.203c0-1.059-0.189-1.853-0.564-2.382
			c-0.377-0.529-0.916-0.794-1.617-0.794c-0.443,0-0.838,0.068-1.182,0.209c-0.348,0.138-0.664,0.311-0.953,0.515
			c-0.299,0.217-0.529,0.433-0.695,0.648c-0.164,0.217-0.305,0.401-0.416,0.556v8.281c0,0.37,0.041,0.672,0.129,0.902
			c0.086,0.23,0.246,0.413,0.48,0.547c0.164,0.093,0.35,0.176,0.559,0.248c0.209,0.07,0.432,0.122,0.666,0.152v1.127h-8.76v-1.127
			c0.193-0.019,0.428-0.045,0.703-0.076c0.275-0.029,0.479-0.081,0.611-0.153c0.215-0.114,0.355-0.278,0.422-0.495
			c0.066-0.214,0.1-0.533,0.1-0.955v-7.203c0-1.059-0.189-1.853-0.564-2.382c-0.377-0.529-0.916-0.794-1.617-0.794
			c-0.443,0-0.838,0.068-1.184,0.209c-0.346,0.138-0.662,0.311-0.949,0.515c-0.301,0.217-0.531,0.433-0.697,0.648
			c-0.164,0.217-0.305,0.401-0.418,0.556v8.281c0,0.36,0.047,0.658,0.139,0.894c0.094,0.237,0.258,0.422,0.494,0.556
			c0.164,0.093,0.352,0.176,0.562,0.248c0.211,0.07,0.436,0.122,0.672,0.152v1.127h-9.238v-1.127
			c0.268-0.019,0.529-0.045,0.787-0.076c0.256-0.029,0.479-0.081,0.662-0.153c0.33-0.125,0.557-0.302,0.68-0.532
			c0.123-0.232,0.186-0.537,0.186-0.918v-8.976c0-0.329-0.088-0.651-0.264-0.964c-0.176-0.313-0.385-0.558-0.631-0.732
			c-0.186-0.124-0.42-0.227-0.703-0.31c-0.281-0.08-0.594-0.138-0.934-0.169v-1.125l7.357-0.4l0.23,0.229v2.175h0.062
			c0.287-0.257,0.629-0.563,1.025-0.917c0.396-0.354,0.768-0.641,1.117-0.855c0.381-0.248,0.869-0.453,1.465-0.618
			c0.598-0.163,1.25-0.247,1.961-0.247c1.17,0,2.15,0.256,2.936,0.764c0.787,0.51,1.346,1.186,1.674,2.028h0.139
			c0.299-0.277,0.664-0.604,1.096-0.979c0.432-0.376,0.828-0.676,1.188-0.902c0.4-0.257,0.912-0.474,1.533-0.647
			c0.623-0.175,1.289-0.264,1.998-0.264c1.551,0,2.748,0.458,3.586,1.374c0.838,0.914,1.258,2.215,1.258,3.9v7.496
			c0,0.381,0.055,0.686,0.168,0.918c0.113,0.229,0.318,0.407,0.617,0.531c0.164,0.073,0.367,0.145,0.609,0.217
			c0.24,0.07,0.521,0.122,0.84,0.152V35.599z"/>
		<path fill="#3C2415" d="M193.533,31.913c-0.361,0.586-0.795,1.139-1.305,1.658c-0.508,0.519-1.086,0.963-1.734,1.333
			c-0.689,0.392-1.385,0.687-2.09,0.888c-0.705,0.199-1.514,0.3-2.428,0.3c-1.523,0-2.836-0.217-3.941-0.648
			s-2.018-1.012-2.736-1.742c-0.721-0.729-1.258-1.59-1.611-2.583c-0.355-0.991-0.533-2.068-0.533-3.23
			c0-1.05,0.193-2.053,0.578-3.016c0.387-0.961,0.934-1.816,1.643-2.568c0.699-0.729,1.58-1.32,2.645-1.772s2.254-0.68,3.57-0.68
			c1.439,0,2.621,0.176,3.547,0.526c0.926,0.349,1.691,0.832,2.299,1.449c0.586,0.586,1.012,1.277,1.279,2.073
			c0.268,0.798,0.4,1.633,0.4,2.507v1.002h-10.424c0,2.107,0.404,3.712,1.217,4.812c0.812,1.1,2.104,1.648,3.871,1.648
			c0.967,0,1.836-0.264,2.607-0.793c0.771-0.53,1.428-1.201,1.975-2.014L193.533,31.913z M187.641,26.052
			c0-0.616-0.031-1.248-0.092-1.896c-0.062-0.648-0.17-1.177-0.324-1.59c-0.176-0.481-0.414-0.847-0.717-1.095
			c-0.303-0.246-0.686-0.37-1.148-0.37c-0.793,0-1.424,0.401-1.898,1.202c-0.473,0.804-0.729,2.072-0.77,3.811L187.641,26.052z"/>
		<path fill="#3C2415" d="M215.369,35.599h-9.27v-1.127c0.197-0.019,0.434-0.045,0.711-0.076c0.277-0.029,0.488-0.081,0.631-0.153
			c0.217-0.114,0.371-0.278,0.463-0.495c0.094-0.214,0.139-0.533,0.139-0.955v-7.218c0-1.049-0.193-1.838-0.58-2.367
			c-0.385-0.529-0.955-0.794-1.709-0.794c-0.41,0-0.795,0.062-1.15,0.185c-0.355,0.124-0.703,0.304-1.045,0.539
			c-0.297,0.207-0.537,0.417-0.719,0.634c-0.182,0.216-0.332,0.406-0.455,0.57v8.281c0,0.36,0.051,0.661,0.154,0.902
			c0.102,0.241,0.271,0.424,0.508,0.547c0.164,0.093,0.371,0.176,0.617,0.248c0.246,0.07,0.488,0.122,0.725,0.152v1.127h-9.375
			v-1.127c0.256-0.019,0.516-0.048,0.777-0.083c0.262-0.037,0.486-0.086,0.67-0.146c0.33-0.114,0.557-0.288,0.68-0.524
			c0.123-0.237,0.186-0.545,0.186-0.926v-8.976c0-0.319-0.082-0.632-0.248-0.94c-0.164-0.31-0.379-0.562-0.646-0.756
			c-0.186-0.124-0.42-0.227-0.701-0.31c-0.283-0.08-0.594-0.138-0.934-0.169v-1.125l7.355-0.4l0.232,0.229v2.237h0.061
			c0.287-0.257,0.639-0.565,1.049-0.925c0.412-0.359,0.791-0.654,1.141-0.88c0.381-0.247,0.879-0.458,1.498-0.632
			c0.615-0.175,1.273-0.264,1.973-0.264c1.676,0,2.934,0.477,3.771,1.427c0.836,0.952,1.256,2.213,1.256,3.787v7.557
			c0,0.381,0.057,0.683,0.17,0.909c0.111,0.227,0.324,0.406,0.633,0.54c0.164,0.073,0.367,0.145,0.607,0.217
			c0.242,0.07,0.518,0.122,0.826,0.152V35.599z"/>
		<path fill="#3C2415" d="M228.277,34.89c-0.658,0.287-1.363,0.547-2.113,0.778s-1.664,0.346-2.746,0.346
			c-1.604,0-2.793-0.389-3.568-1.17c-0.777-0.78-1.166-1.895-1.166-3.342v-9.459h-2.775v-1.682h2.838V15.69h4.998v4.671h4.332v1.682
			h-4.303v8.44c0,1.201,0.168,2.053,0.504,2.556c0.334,0.503,0.936,0.755,1.803,0.755c0.279,0,0.666-0.021,1.16-0.062
			c0.496-0.041,0.842-0.087,1.037-0.139V34.89z"/>
	</g>
</g>
</svg>
