<?xml version="1.0" encoding="utf-8"?>
<!-- Generator: Adobe Illustrator 16.0.0, SVG Export Plug-In . SVG Version: 6.00 Build 0)  -->
<!DOCTYPE svg PUBLIC "-//W3C//DTD SVG 1.0//EN" "http://www.w3.org/TR/2001/REC-SVG-20010904/DTD/svg10.dtd">
<svg version="1.0" id="Layer_1" xmlns="http://www.w3.org/2000/svg" xmlns:xlink="http://www.w3.org/1999/xlink" x="0px" y="0px"
	 width="118.043px" height="49.816px" viewBox="0 0 118.043 49.816" enable-background="new 0 0 118.043 49.816"
	 xml:space="preserve">
<g>
	<g>
		<linearGradient id="SVGID_1_" gradientUnits="userSpaceOnUse" x1="82.8301" y1="66.1475" x2="35.2119" y2="-16.3296">
			<stop  offset="0" style="stop-color:#603913"/>
			<stop  offset="0.1168" style="stop-color:#744B23"/>
			<stop  offset="0.2913" style="stop-color:#8F6439"/>
			<stop  offset="0.4676" style="stop-color:#A47A4D"/>
			<stop  offset="0.6441" style="stop-color:#B48A5D"/>
			<stop  offset="0.8213" style="stop-color:#BF9567"/>
			<stop  offset="1" style="stop-color:#C49A6C"/>
		</linearGradient>
		<path fill="url(#SVGID_1_)" d="M4,47.816c-1.104,0-2-0.896-2-2V4c0-1.104,0.896-2,2-2h110.043c1.104,0,2,0.896,2,2v41.816
			c0,1.104-0.896,2-2,2H4z"/>
		<path fill="#3C2415" d="M114.043,4v18.476v23.341H4V24.908V4H114.043 M114.043,0H4C1.791,0,0,1.791,0,4v20.908v20.908
			c0,2.209,1.791,4,4,4h110.043c2.209,0,4-1.791,4-4V22.476V4C118.043,1.791,116.252,0,114.043,0L114.043,0z"/>
	</g>
	<g>
		<path fill="#3C2415" d="M37.506,35.256h-11.49V34.09c0.338-0.029,0.754-0.079,1.248-0.149c0.492-0.069,0.83-0.144,1.008-0.224
			c0.369-0.149,0.633-0.354,0.793-0.612c0.158-0.26,0.238-0.587,0.238-0.986V16.279l-7.291,18.633h-1.884
			c-0.089-0.329-0.311-0.98-0.664-1.958c-0.354-0.976-0.641-1.758-0.86-2.346L13.24,16.041v12.895c0,1.235,0.082,2.174,0.246,2.816
			s0.431,1.113,0.8,1.412c0.249,0.209,0.693,0.408,1.337,0.598c0.643,0.189,1.093,0.299,1.353,0.328v1.166H7.86V34.09
			c0.25-0.029,0.655-0.097,1.218-0.201c0.563-0.105,1.024-0.287,1.383-0.546c0.398-0.278,0.667-0.749,0.807-1.412
			c0.14-0.662,0.209-1.605,0.209-2.831V18.596c0-0.638-0.079-1.168-0.238-1.592c-0.159-0.423-0.399-0.76-0.718-1.009
			c-0.398-0.308-0.807-0.508-1.226-0.598c-0.418-0.09-0.842-0.149-1.27-0.179v-1.166h9.77l5.227,13.97l4.406-11.337
			c0.148-0.42,0.293-0.918,0.432-1.495c0.141-0.578,0.215-0.958,0.225-1.138h9.393v1.166c-0.318,0.02-0.652,0.06-1,0.119
			c-0.35,0.06-0.684,0.14-1.002,0.239c-0.389,0.13-0.646,0.334-0.77,0.612c-0.125,0.279-0.188,0.588-0.188,0.928v15.016
			c0,0.358,0.062,0.66,0.188,0.904c0.123,0.244,0.381,0.455,0.77,0.635c0.199,0.09,0.525,0.174,0.979,0.254
			c0.453,0.079,0.805,0.135,1.053,0.164V35.256z"/>
		<path fill="#3C2415" d="M54.779,22.196c0.736,0.687,1.301,1.509,1.688,2.466c0.389,0.956,0.584,1.992,0.584,3.107
			c0,1.106-0.193,2.149-0.576,3.131s-0.943,1.82-1.68,2.518c-0.787,0.747-1.727,1.32-2.818,1.718
			c-1.09,0.398-2.338,0.599-3.742,0.599c-1.215,0-2.334-0.175-3.354-0.523c-1.021-0.349-1.926-0.872-2.713-1.569
			c-0.756-0.667-1.354-1.492-1.793-2.473s-0.656-2.079-0.656-3.294c0-1.196,0.191-2.259,0.574-3.191
			c0.383-0.932,0.959-1.76,1.727-2.487c0.736-0.697,1.645-1.237,2.727-1.621C45.826,20.192,47.035,20,48.369,20
			c1.395,0,2.623,0.192,3.684,0.575C53.113,20.959,54.021,21.499,54.779,22.196z M50.953,32.551
			c0.221-0.558,0.381-1.234,0.486-2.031s0.156-1.724,0.156-2.779c0-0.697-0.049-1.494-0.148-2.391s-0.25-1.604-0.449-2.122
			c-0.238-0.628-0.57-1.121-0.992-1.479c-0.424-0.357-0.959-0.538-1.607-0.538c-0.707,0-1.271,0.194-1.695,0.582
			c-0.424,0.389-0.75,0.894-0.979,1.511c-0.209,0.567-0.354,1.231-0.434,1.994c-0.08,0.762-0.119,1.557-0.119,2.383
			c0,1.086,0.035,1.986,0.104,2.697c0.07,0.712,0.24,1.427,0.508,2.145c0.23,0.618,0.559,1.105,0.986,1.465
			c0.43,0.358,0.973,0.537,1.629,0.537c0.598,0,1.111-0.167,1.539-0.501C50.367,33.689,50.705,33.199,50.953,32.551z"/>
		<path fill="#3C2415" d="M74.234,22.196c0.736,0.687,1.299,1.509,1.688,2.466c0.389,0.956,0.582,1.992,0.582,3.107
			c0,1.106-0.191,2.149-0.574,3.131s-0.945,1.82-1.682,2.518c-0.787,0.747-1.727,1.32-2.816,1.718
			c-1.09,0.398-2.338,0.599-3.742,0.599c-1.217,0-2.334-0.175-3.355-0.523s-1.926-0.872-2.711-1.569
			c-0.758-0.667-1.355-1.492-1.793-2.473c-0.439-0.98-0.658-2.079-0.658-3.294c0-1.196,0.191-2.259,0.576-3.191
			c0.383-0.932,0.957-1.76,1.725-2.487c0.736-0.697,1.646-1.237,2.727-1.621C65.281,20.192,66.488,20,67.822,20
			c1.396,0,2.623,0.192,3.686,0.575C72.568,20.959,73.477,21.499,74.234,22.196z M70.408,32.551
			c0.219-0.558,0.381-1.234,0.486-2.031c0.104-0.797,0.156-1.724,0.156-2.779c0-0.697-0.051-1.494-0.148-2.391
			c-0.102-0.896-0.25-1.604-0.449-2.122c-0.238-0.628-0.57-1.121-0.994-1.479c-0.424-0.357-0.959-0.538-1.605-0.538
			c-0.707,0-1.273,0.194-1.695,0.582c-0.424,0.389-0.75,0.894-0.98,1.511c-0.209,0.567-0.354,1.231-0.432,1.994
			c-0.08,0.762-0.121,1.557-0.121,2.383c0,1.086,0.035,1.986,0.105,2.697c0.068,0.712,0.238,1.427,0.508,2.145
			c0.229,0.618,0.559,1.105,0.986,1.465c0.428,0.358,0.971,0.537,1.629,0.537c0.598,0,1.109-0.167,1.539-0.501
			C69.82,33.689,70.158,33.199,70.408,32.551z"/>
		<path fill="#3C2415" d="M85.352,35.764c-0.967,0-1.912-0.142-2.832-0.426c-0.922-0.283-1.637-0.586-2.145-0.904l-0.449,1.017
			H78.76l-0.193-5.573h1.092c0.148,0.448,0.396,0.953,0.746,1.517s0.748,1.067,1.195,1.517c0.469,0.448,1.004,0.827,1.607,1.136
			c0.602,0.309,1.246,0.463,1.934,0.463c0.906,0,1.582-0.178,2.025-0.531c0.443-0.353,0.664-0.898,0.664-1.636
			c0-0.398-0.1-0.727-0.299-0.985c-0.199-0.26-0.473-0.484-0.822-0.673c-0.387-0.199-0.812-0.368-1.277-0.508
			c-0.463-0.14-1.033-0.31-1.711-0.509c-0.676-0.198-1.256-0.4-1.74-0.604c-0.482-0.205-0.984-0.525-1.502-0.964
			c-0.447-0.388-0.807-0.856-1.074-1.404C79.135,26.146,79,25.493,79,24.737c0-1.405,0.59-2.541,1.771-3.407
			c1.18-0.866,2.727-1.3,4.639-1.3c0.906,0,1.74,0.092,2.502,0.276c0.764,0.185,1.402,0.387,1.92,0.605l0.314-0.882h1.135
			l0.24,5.095h-1.047c-0.348-1.036-0.945-1.93-1.793-2.682c-0.846-0.753-1.758-1.128-2.732-1.128c-0.77,0-1.371,0.159-1.809,0.477
			c-0.439,0.319-0.658,0.763-0.658,1.331c0,0.757,0.32,1.305,0.963,1.644c0.641,0.338,1.539,0.657,2.691,0.956
			c1.779,0.459,3.084,1.083,3.908,1.875c0.826,0.792,1.238,1.801,1.238,3.026c0,1.633-0.639,2.898-1.92,3.795
			C89.084,35.315,87.412,35.764,85.352,35.764z"/>
		<path fill="#3C2415" d="M110.184,31.686c-0.35,0.567-0.77,1.103-1.262,1.605c-0.494,0.503-1.055,0.934-1.682,1.292
			c-0.668,0.379-1.342,0.665-2.025,0.859c-0.682,0.194-1.467,0.292-2.354,0.292c-1.473,0-2.746-0.21-3.816-0.628
			c-1.072-0.419-1.955-0.981-2.652-1.688c-0.697-0.708-1.219-1.541-1.562-2.503c-0.342-0.961-0.516-2.005-0.516-3.13
			c0-1.017,0.188-1.99,0.561-2.921c0.375-0.932,0.904-1.762,1.592-2.488c0.678-0.708,1.531-1.279,2.562-1.719
			c1.031-0.438,2.184-0.657,3.459-0.657c1.395,0,2.541,0.169,3.438,0.508s1.639,0.808,2.227,1.405
			c0.566,0.567,0.98,1.237,1.24,2.009c0.258,0.772,0.389,1.582,0.389,2.429v0.971H99.68c0,2.042,0.393,3.597,1.18,4.663
			c0.787,1.065,2.037,1.598,3.75,1.598c0.938,0,1.779-0.256,2.525-0.77c0.748-0.513,1.385-1.163,1.914-1.95L110.184,31.686z
			 M104.477,26.007c0-0.599-0.031-1.21-0.09-1.838c-0.061-0.627-0.166-1.141-0.314-1.539c-0.17-0.468-0.4-0.821-0.695-1.062
			c-0.293-0.238-0.664-0.358-1.113-0.358c-0.766,0-1.379,0.389-1.838,1.166c-0.457,0.777-0.707,2.008-0.746,3.69L104.477,26.007z"/>
	</g>
</g>
</svg>
