<?xml version="1.0" encoding="utf-8"?>
<!-- Generator: Adobe Illustrator 16.0.0, SVG Export Plug-In . SVG Version: 6.00 Build 0)  -->
<!DOCTYPE svg PUBLIC "-//W3C//DTD SVG 1.0//EN" "http://www.w3.org/TR/2001/REC-SVG-20010904/DTD/svg10.dtd">
<svg version="1.0" id="Layer_1" xmlns="http://www.w3.org/2000/svg" xmlns:xlink="http://www.w3.org/1999/xlink" x="0px" y="0px"
	 width="892.411px" height="51.113px" viewBox="0 0 892.411 51.113" enable-background="new 0 0 892.411 51.113"
	 xml:space="preserve">
<g>
	<linearGradient id="SVGID_1_" gradientUnits="userSpaceOnUse" x1="15.6768" y1="3.2407" x2="15.6768" y2="40.1328">
		<stop  offset="0" style="stop-color:#3C2415"/>
		<stop  offset="0.5" style="stop-color:#A97C50"/>
		<stop  offset="1" style="stop-color:#603913"/>
	</linearGradient>
	<path fill="url(#SVGID_1_)" stroke="#3C2415" stroke-width="2" stroke-miterlimit="10" d="M15.812,40.133
		c-2.136,0-4.128-0.268-5.976-0.801c-1.849-0.534-3.414-1.162-4.695-1.885l-1.7,1.725H1.346l-0.32-12.642h2.12
		c0.476,1.202,1.083,2.469,1.823,3.803c0.739,1.334,1.593,2.527,2.562,3.582c1.002,1.104,2.123,2,3.364,2.692
		c1.24,0.692,2.689,1.037,4.35,1.037c2.233,0,3.947-0.546,5.138-1.64c1.191-1.094,1.787-2.471,1.787-4.131
		c0-1.365-0.505-2.512-1.516-3.441c-1.011-0.929-2.575-1.731-4.694-2.408c-1.381-0.445-2.649-0.858-3.808-1.238
		c-1.158-0.379-2.247-0.767-3.266-1.163c-2.35-0.938-4.095-2.278-5.237-4.022c-1.142-1.744-1.712-3.693-1.712-5.848
		c0-1.366,0.295-2.678,0.887-3.936s1.454-2.389,2.588-3.393c1.084-0.937,2.473-1.702,4.165-2.294
		c1.691-0.592,3.532-0.888,5.52-0.888c1.938,0,3.755,0.271,5.446,0.813c1.692,0.542,3.023,1.084,3.993,1.626l1.503-1.479h2.144
		l0.197,11.928h-2.119c-0.493-1.285-1.072-2.598-1.737-3.94c-0.665-1.342-1.367-2.458-2.107-3.347
		c-0.805-0.955-1.733-1.716-2.784-2.285c-1.052-0.568-2.284-0.852-3.697-0.852c-1.773,0-3.224,0.502-4.35,1.505
		c-1.125,1.004-1.688,2.246-1.688,3.728c0,1.399,0.488,2.542,1.467,3.431c0.977,0.889,2.501,1.67,4.57,2.345
		c1.216,0.411,2.456,0.822,3.722,1.234c1.265,0.411,2.391,0.806,3.376,1.184c2.382,0.921,4.193,2.193,5.435,3.812
		c1.24,1.621,1.86,3.632,1.86,6.034c0,1.513-0.354,2.978-1.06,4.393c-0.707,1.414-1.66,2.591-2.859,3.528
		c-1.314,1.037-2.834,1.834-4.559,2.394S18.112,40.133,15.812,40.133z"/>
	<linearGradient id="SVGID_2_" gradientUnits="userSpaceOnUse" x1="48.2437" y1="14.0103" x2="48.2437" y2="39.96">
		<stop  offset="0" style="stop-color:#3C2415"/>
		<stop  offset="0.5" style="stop-color:#A97C50"/>
		<stop  offset="1" style="stop-color:#603913"/>
	</linearGradient>
	<path fill="url(#SVGID_2_)" stroke="#3C2415" stroke-width="2" stroke-miterlimit="10" d="M58.792,17.632
		c1.216,1.134,2.144,2.489,2.784,4.066c0.642,1.577,0.962,3.287,0.962,5.126c0,1.824-0.316,3.545-0.949,5.163
		s-1.557,3.002-2.772,4.152c-1.298,1.232-2.846,2.177-4.646,2.834c-1.799,0.657-3.856,0.986-6.173,0.986
		c-2.005,0-3.849-0.288-5.532-0.862c-1.685-0.575-3.176-1.438-4.474-2.588c-1.249-1.1-2.234-2.46-2.957-4.079
		c-0.724-1.618-1.085-3.429-1.085-5.434c0-1.972,0.316-3.726,0.949-5.262s1.581-2.904,2.847-4.104
		c1.216-1.149,2.715-2.041,4.498-2.673c1.782-0.632,3.773-0.949,5.976-0.949c2.3,0,4.325,0.316,6.075,0.949
		C56.043,15.591,57.542,16.483,58.792,17.632z M52.483,34.711c0.361-0.92,0.628-2.037,0.801-3.352
		c0.173-1.313,0.259-2.842,0.259-4.583c0-1.15-0.083-2.465-0.247-3.943s-0.41-2.645-0.739-3.499c-0.394-1.035-0.94-1.849-1.639-2.44
		c-0.698-0.592-1.581-0.888-2.648-0.888c-1.167,0-2.1,0.321-2.798,0.961s-1.236,1.47-1.613,2.489
		c-0.346,0.936-0.584,2.033-0.715,3.29c-0.132,1.257-0.198,2.568-0.198,3.931c0,1.791,0.058,3.274,0.173,4.449
		c0.115,1.174,0.395,2.353,0.838,3.536c0.378,1.019,0.92,1.823,1.627,2.415c0.706,0.592,1.602,0.888,2.687,0.888
		c0.985,0,1.831-0.275,2.538-0.826C51.513,36.588,52.072,35.779,52.483,34.711z"/>
	<linearGradient id="SVGID_3_" gradientUnits="userSpaceOnUse" x1="81.2666" y1="14.4292" x2="81.2666" y2="39.9106">
		<stop  offset="0" style="stop-color:#3C2415"/>
		<stop  offset="0.5" style="stop-color:#A97C50"/>
		<stop  offset="1" style="stop-color:#603913"/>
	</linearGradient>
	<path fill="url(#SVGID_3_)" stroke="#3C2415" stroke-width="2" stroke-miterlimit="10" d="M97.852,38.654l-11.755,0.715
		l-0.37-0.345v-3.228H85.58c-0.558,0.509-1.104,1.006-1.637,1.491c-0.533,0.485-1.169,0.924-1.907,1.318
		c-0.836,0.444-1.628,0.772-2.375,0.986c-0.746,0.213-1.833,0.32-3.26,0.32c-2.478,0-4.376-0.748-5.697-2.242
		c-1.321-1.495-1.98-3.606-1.98-6.334V20.245c0-0.641-0.123-1.163-0.368-1.565c-0.244-0.402-0.571-0.76-0.979-1.072
		c-0.326-0.247-0.751-0.423-1.274-0.53c-0.521-0.107-0.996-0.176-1.42-0.209V15.07l11.904-0.641l0.27,0.369v16.389
		c0,1.692,0.325,2.941,0.974,3.746c0.649,0.805,1.54,1.207,2.674,1.207c1.166,0,2.214-0.304,3.143-0.912
		c0.928-0.608,1.605-1.257,2.033-1.947V19.999c0-0.559-0.107-1.06-0.32-1.503c-0.214-0.443-0.526-0.805-0.937-1.084
		c-0.296-0.197-0.719-0.328-1.27-0.394s-1.113-0.115-1.688-0.148V15.07l11.976-0.641l0.37,0.369v19.025
		c0,0.575,0.114,1.064,0.343,1.466c0.229,0.403,0.563,0.744,1.005,1.023c0.31,0.197,0.714,0.333,1.212,0.406
		c0.499,0.074,0.992,0.12,1.482,0.136V38.654z"/>
	<linearGradient id="SVGID_4_" gradientUnits="userSpaceOnUse" x1="115.9653" y1="14.0591" x2="115.9653" y2="39.1714">
		<stop  offset="0" style="stop-color:#3C2415"/>
		<stop  offset="0.5" style="stop-color:#A97C50"/>
		<stop  offset="1" style="stop-color:#603913"/>
	</linearGradient>
	<path fill="url(#SVGID_4_)" stroke="#3C2415" stroke-width="2" stroke-miterlimit="10" d="M132.403,39.171h-14.811v-1.799
		c0.312-0.032,0.689-0.074,1.133-0.123c0.444-0.049,0.78-0.131,1.011-0.247c0.345-0.18,0.592-0.443,0.739-0.788
		c0.148-0.345,0.222-0.854,0.222-1.528V23.153c0-1.676-0.309-2.937-0.927-3.783s-1.527-1.269-2.73-1.269
		c-0.659,0-1.272,0.098-1.841,0.295s-1.124,0.485-1.668,0.863c-0.479,0.329-0.861,0.666-1.149,1.01
		c-0.288,0.345-0.531,0.649-0.729,0.912v13.234c0,0.575,0.082,1.056,0.246,1.441c0.164,0.386,0.436,0.677,0.813,0.875
		c0.263,0.148,0.591,0.279,0.986,0.395c0.394,0.115,0.779,0.196,1.157,0.246v1.799H99.873v-1.799
		c0.411-0.032,0.826-0.077,1.245-0.135c0.419-0.057,0.776-0.136,1.072-0.234c0.525-0.18,0.887-0.459,1.084-0.837
		s0.296-0.871,0.296-1.479V20.343c0-0.509-0.132-1.01-0.395-1.503s-0.608-0.896-1.035-1.208c-0.296-0.197-0.67-0.361-1.121-0.492
		c-0.452-0.132-0.949-0.222-1.491-0.271V15.07l11.755-0.641l0.37,0.369v3.574h0.099c0.46-0.411,1.019-0.904,1.676-1.479
		s1.265-1.043,1.823-1.405c0.607-0.394,1.405-0.731,2.391-1.01c0.986-0.279,2.037-0.419,3.154-0.419c2.678,0,4.687,0.761,6.025,2.28
		c1.339,1.519,2.009,3.536,2.009,6.05v12.075c0,0.608,0.09,1.093,0.271,1.454c0.18,0.362,0.518,0.649,1.01,0.862
		c0.263,0.115,0.588,0.23,0.974,0.346c0.386,0.115,0.825,0.196,1.318,0.246V39.171z"/>
	<linearGradient id="SVGID_5_" gradientUnits="userSpaceOnUse" x1="150.7749" y1="1.0229" x2="150.7749" y2="39.96">
		<stop  offset="0" style="stop-color:#3C2415"/>
		<stop  offset="0.5" style="stop-color:#A97C50"/>
		<stop  offset="1" style="stop-color:#603913"/>
	</linearGradient>
	<path fill="url(#SVGID_5_)" stroke="#3C2415" stroke-width="2" stroke-miterlimit="10" d="M166.535,38.654l-12.149,0.715
		l-0.37-0.345v-2.267l-0.172-0.049c-0.804,0.871-1.892,1.63-3.261,2.279c-1.371,0.649-2.753,0.974-4.147,0.974
		c-3.314,0-6.047-1.232-8.196-3.697c-2.148-2.464-3.224-5.651-3.224-9.562c0-3.467,1.202-6.44,3.605-8.921
		c2.403-2.481,5.312-3.722,8.725-3.722c1.346,0,2.609,0.152,3.791,0.456c1.181,0.305,2.125,0.662,2.83,1.072V7.528
		c0-0.607-0.123-1.179-0.37-1.712c-0.246-0.534-0.575-0.949-0.985-1.244c-0.509-0.361-1.146-0.62-1.91-0.776
		s-1.532-0.267-2.304-0.333V1.664l13.331-0.641l0.37,0.394v32.308c0,0.625,0.103,1.15,0.307,1.577
		c0.204,0.428,0.535,0.764,0.993,1.011c0.343,0.181,0.845,0.312,1.507,0.394c0.661,0.083,1.205,0.132,1.63,0.148V38.654z
		 M153.966,34.267V20.343c-0.114-0.377-0.274-0.796-0.479-1.256c-0.205-0.46-0.488-0.896-0.849-1.306
		c-0.327-0.345-0.766-0.649-1.314-0.912c-0.55-0.263-1.168-0.395-1.856-0.395c-1.639,0-2.982,0.929-4.031,2.785
		c-1.05,1.857-1.573,4.477-1.573,7.861c0,1.331,0.094,2.526,0.282,3.585c0.188,1.06,0.52,2.025,0.995,2.896s1.086,1.552,1.832,2.045
		c0.745,0.493,1.643,0.739,2.691,0.739c1,0,1.828-0.193,2.483-0.579C152.802,35.422,153.409,34.908,153.966,34.267z"/>
	<linearGradient id="SVGID_6_" gradientUnits="userSpaceOnUse" x1="179.6943" y1="14.0591" x2="179.6943" y2="40.0093">
		<stop  offset="0" style="stop-color:#3C2415"/>
		<stop  offset="0.5" style="stop-color:#A97C50"/>
		<stop  offset="1" style="stop-color:#603913"/>
	</linearGradient>
	<path fill="url(#SVGID_6_)" stroke="#3C2415" stroke-width="2" stroke-miterlimit="10" d="M179.571,40.009
		c-1.594,0-3.15-0.234-4.67-0.703c-1.52-0.468-2.698-0.965-3.536-1.491l-0.739,1.676h-1.923l-0.32-9.192h1.8
		c0.246,0.739,0.656,1.573,1.231,2.501c0.575,0.928,1.232,1.762,1.972,2.501c0.772,0.74,1.655,1.364,2.649,1.873
		c0.993,0.51,2.058,0.764,3.191,0.764c1.495,0,2.608-0.291,3.339-0.875c0.73-0.583,1.097-1.482,1.097-2.698
		c0-0.656-0.164-1.199-0.493-1.626c-0.328-0.428-0.78-0.797-1.355-1.109c-0.641-0.329-1.343-0.607-2.106-0.838
		c-0.764-0.229-1.704-0.509-2.821-0.838c-1.117-0.329-2.075-0.661-2.871-0.998c-0.798-0.336-1.623-0.866-2.477-1.589
		c-0.74-0.641-1.331-1.413-1.775-2.317c-0.443-0.903-0.665-1.979-0.665-3.228c0-2.317,0.974-4.19,2.921-5.619
		c1.946-1.429,4.497-2.144,7.651-2.144c1.495,0,2.871,0.152,4.128,0.456c1.257,0.305,2.312,0.637,3.167,0.999l0.518-1.455h1.873
		l0.394,8.404h-1.725c-0.575-1.708-1.561-3.183-2.957-4.423s-2.9-1.861-4.51-1.861c-1.266,0-2.26,0.263-2.982,0.789
		s-1.084,1.257-1.084,2.193c0,1.249,0.528,2.152,1.586,2.711c1.059,0.559,2.539,1.084,4.441,1.577
		c2.936,0.756,5.084,1.787,6.445,3.093s2.043,2.97,2.043,4.99c0,2.694-1.057,4.781-3.168,6.26S182.971,40.009,179.571,40.009z"/>
	<linearGradient id="SVGID_7_" gradientUnits="userSpaceOnUse" x1="221.4658" y1="14.0103" x2="221.4658" y2="39.96">
		<stop  offset="0" style="stop-color:#3C2415"/>
		<stop  offset="0.5" style="stop-color:#A97C50"/>
		<stop  offset="1" style="stop-color:#603913"/>
	</linearGradient>
	<path fill="url(#SVGID_7_)" stroke="#3C2415" stroke-width="2" stroke-miterlimit="10" d="M232.013,17.632
		c1.216,1.134,2.144,2.489,2.784,4.066c0.642,1.577,0.962,3.287,0.962,5.126c0,1.824-0.317,3.545-0.949,5.163
		s-1.558,3.002-2.772,4.152c-1.298,1.232-2.846,2.177-4.646,2.834c-1.799,0.657-3.856,0.986-6.173,0.986
		c-2.005,0-3.85-0.288-5.533-0.862s-3.175-1.438-4.473-2.588c-1.249-1.1-2.234-2.46-2.957-4.079
		c-0.723-1.618-1.084-3.429-1.084-5.434c0-1.972,0.315-3.726,0.948-5.262s1.581-2.904,2.847-4.104
		c1.215-1.149,2.715-2.041,4.498-2.673c1.781-0.632,3.773-0.949,5.976-0.949c2.3,0,4.325,0.316,6.075,0.949
		C229.265,15.591,230.764,16.483,232.013,17.632z M225.704,34.711c0.361-0.92,0.629-2.037,0.802-3.352
		c0.173-1.313,0.259-2.842,0.259-4.583c0-1.15-0.083-2.465-0.246-3.943c-0.165-1.479-0.412-2.645-0.74-3.499
		c-0.395-1.035-0.94-1.849-1.639-2.44c-0.698-0.592-1.582-0.888-2.648-0.888c-1.168,0-2.1,0.321-2.798,0.961
		s-1.236,1.47-1.614,2.489c-0.345,0.936-0.583,2.033-0.715,3.29c-0.131,1.257-0.197,2.568-0.197,3.931
		c0,1.791,0.058,3.274,0.173,4.449c0.115,1.174,0.395,2.353,0.838,3.536c0.378,1.019,0.92,1.823,1.627,2.415
		c0.706,0.592,1.602,0.888,2.687,0.888c0.984,0,1.831-0.275,2.537-0.826C224.735,36.588,225.293,35.779,225.704,34.711z"/>
	<linearGradient id="SVGID_8_" gradientUnits="userSpaceOnUse" x1="249.9541" y1="1.0229" x2="249.9541" y2="39.1714">
		<stop  offset="0" style="stop-color:#3C2415"/>
		<stop  offset="0.5" style="stop-color:#A97C50"/>
		<stop  offset="1" style="stop-color:#603913"/>
	</linearGradient>
	<path fill="url(#SVGID_8_)" stroke="#3C2415" stroke-width="2" stroke-miterlimit="10" d="M262.251,5.212
		c0,0.411-0.065,0.862-0.196,1.355c-0.133,0.493-0.346,0.911-0.642,1.256c-0.345,0.411-0.731,0.724-1.158,0.937
		c-0.427,0.214-1.067,0.32-1.923,0.32c-1.297,0-2.315-0.452-3.055-1.355c-0.74-0.903-1.528-2.406-2.366-4.509
		c-0.657,0.278-1.192,1-1.603,2.164c-0.41,1.164-0.615,3.664-0.615,7.5v1.943h6.801v2.686h-6.752v16.959
		c0,0.64,0.148,1.137,0.443,1.489c0.296,0.353,0.682,0.611,1.158,0.775c0.395,0.131,0.912,0.258,1.553,0.381
		c0.641,0.124,1.216,0.209,1.725,0.258v1.799h-16.658v-1.799c0.43-0.032,0.848-0.073,1.252-0.123
		c0.405-0.049,0.766-0.131,1.08-0.246c0.528-0.197,0.889-0.48,1.079-0.849s0.285-0.857,0.285-1.465v-17.18h-5.003v-2.686h5.003
		c0-1.754,0.255-3.457,0.765-5.104c0.508-1.648,1.297-3.12,2.365-4.416c1.035-1.279,2.398-2.312,4.091-3.099s3.68-1.181,5.964-1.181
		c2.037,0,3.614,0.386,4.731,1.158C261.693,2.953,262.251,3.964,262.251,5.212z"/>
	<linearGradient id="SVGID_9_" gradientUnits="userSpaceOnUse" x1="280.0444" y1="7.356" x2="280.0444" y2="39.8364">
		<stop  offset="0" style="stop-color:#3C2415"/>
		<stop  offset="0.5" style="stop-color:#A97C50"/>
		<stop  offset="1" style="stop-color:#603913"/>
	</linearGradient>
	<path fill="url(#SVGID_9_)" stroke="#3C2415" stroke-width="2" stroke-miterlimit="10" d="M289.926,38.038
		c-1.051,0.46-2.177,0.875-3.376,1.245c-1.2,0.37-2.661,0.554-4.387,0.554c-2.563,0-4.465-0.624-5.705-1.87
		c-1.24-1.248-1.86-3.028-1.86-5.342V17.509h-4.436v-2.686h4.534V7.356h7.984v7.467h6.925v2.686h-6.875v13.487
		c0,1.92,0.268,3.281,0.803,4.085c0.536,0.804,1.496,1.206,2.881,1.206c0.445,0,1.064-0.032,1.855-0.098
		c0.791-0.065,1.344-0.139,1.656-0.222V38.038z"/>
	<linearGradient id="SVGID_10_" gradientUnits="userSpaceOnUse" x1="306.9917" y1="1.0229" x2="306.9917" y2="39.1714">
		<stop  offset="0" style="stop-color:#3C2415"/>
		<stop  offset="0.5" style="stop-color:#A97C50"/>
		<stop  offset="1" style="stop-color:#603913"/>
	</linearGradient>
	<path fill="url(#SVGID_10_)" stroke="#3C2415" stroke-width="2" stroke-miterlimit="10" d="M323.688,39.171h-14.811v-1.799
		c0.328-0.032,0.715-0.074,1.158-0.123c0.443-0.049,0.772-0.131,0.986-0.247c0.345-0.18,0.587-0.443,0.727-0.788
		c0.14-0.345,0.209-0.854,0.209-1.528V23.153c0-1.692-0.316-2.957-0.948-3.795c-0.633-0.838-1.532-1.257-2.698-1.257
		c-0.658,0-1.27,0.098-1.836,0.295c-0.567,0.197-1.121,0.485-1.664,0.863c-0.477,0.329-0.858,0.666-1.146,1.01
		c-0.288,0.345-0.53,0.649-0.728,0.912v13.234c0,0.607,0.074,1.088,0.223,1.441c0.147,0.354,0.427,0.645,0.838,0.875
		c0.246,0.148,0.57,0.279,0.973,0.395c0.402,0.115,0.793,0.196,1.171,0.246v1.799h-15.033v-1.799
		c0.431-0.032,0.848-0.074,1.253-0.123c0.405-0.049,0.766-0.131,1.08-0.247c0.528-0.197,0.889-0.48,1.078-0.85
		c0.19-0.37,0.286-0.858,0.286-1.466V7.208c0-0.525-0.124-1.084-0.37-1.675c-0.246-0.592-0.592-1.035-1.035-1.331
		c-0.328-0.213-0.805-0.382-1.43-0.505c-0.624-0.123-1.182-0.201-1.676-0.234V1.664l12.272-0.641l0.37,0.394v16.955h0.1
		c0.623-0.559,1.184-1.063,1.686-1.516c0.5-0.451,1.111-0.907,1.833-1.368c0.606-0.394,1.397-0.731,2.374-1.01
		c0.977-0.279,2.03-0.419,3.162-0.419c2.658,0,4.655,0.764,5.992,2.292c1.338,1.528,2.006,3.541,2.006,6.038v12.075
		c0,0.608,0.09,1.093,0.271,1.454c0.181,0.362,0.518,0.649,1.01,0.862c0.297,0.132,0.625,0.247,0.986,0.346
		c0.361,0.098,0.805,0.181,1.33,0.246V39.171z"/>
	<linearGradient id="SVGID_11_" gradientUnits="userSpaceOnUse" x1="339.3618" y1="14.0103" x2="339.3618" y2="39.96">
		<stop  offset="0" style="stop-color:#3C2415"/>
		<stop  offset="0.5" style="stop-color:#A97C50"/>
		<stop  offset="1" style="stop-color:#603913"/>
	</linearGradient>
	<path fill="url(#SVGID_11_)" stroke="#3C2415" stroke-width="2" stroke-miterlimit="10" d="M352.448,33.281
		c-0.574,0.937-1.269,1.82-2.082,2.649c-0.813,0.83-1.737,1.541-2.772,2.132c-1.101,0.625-2.214,1.097-3.339,1.417
		s-2.42,0.48-3.881,0.48c-2.432,0-4.531-0.345-6.297-1.035c-1.767-0.689-3.225-1.618-4.375-2.785
		c-1.15-1.166-2.008-2.542-2.575-4.128c-0.567-1.585-0.851-3.306-0.851-5.163c0-1.676,0.309-3.282,0.925-4.818
		c0.616-1.536,1.491-2.903,2.624-4.103c1.117-1.167,2.527-2.111,4.227-2.834c1.701-0.723,3.602-1.084,5.705-1.084
		c2.301,0,4.189,0.279,5.668,0.837c1.479,0.559,2.703,1.331,3.673,2.317c0.937,0.937,1.618,2.042,2.045,3.314
		c0.427,1.273,0.642,2.608,0.642,4.004v1.602h-16.66c0,3.368,0.648,5.931,1.947,7.689c1.297,1.758,3.359,2.637,6.186,2.637
		c1.544,0,2.933-0.423,4.165-1.27c1.231-0.846,2.282-1.918,3.153-3.216L352.448,33.281z M343.035,23.917
		c0-0.985-0.05-1.996-0.148-3.031s-0.271-1.88-0.518-2.538c-0.279-0.772-0.661-1.355-1.146-1.749
		c-0.484-0.395-1.097-0.592-1.836-0.592c-1.266,0-2.276,0.641-3.031,1.922c-0.756,1.282-1.167,3.311-1.232,6.087L343.035,23.917z"/>
	<linearGradient id="SVGID_12_" gradientUnits="userSpaceOnUse" x1="394.5898" y1="4.2017" x2="394.5898" y2="39.5654">
		<stop  offset="0" style="stop-color:#3C2415"/>
		<stop  offset="0.5" style="stop-color:#A97C50"/>
		<stop  offset="1" style="stop-color:#603913"/>
	</linearGradient>
	<path fill="url(#SVGID_12_)" stroke="#3C2415" stroke-width="2" stroke-miterlimit="10" d="M423.991,6.173
		c-0.51,0.05-1.02,0.161-1.529,0.333c-0.51,0.172-1.01,0.39-1.502,0.652c-0.756,0.428-1.295,0.896-1.615,1.405
		c-0.32,0.509-0.611,1.126-0.875,1.849c-0.904,2.498-2.295,6.498-4.176,12.001c-1.883,5.504-3.842,11.221-5.879,17.152h-4.979
		l-9.209-25.977l-8.316,25.977h-4.973c-2.746-7.984-4.848-14.133-6.311-18.446c-1.462-4.312-2.694-7.931-3.696-10.855
		c-0.312-0.887-0.665-1.532-1.06-1.935s-0.904-0.809-1.527-1.22c-0.444-0.296-0.917-0.514-1.418-0.653s-1.08-0.25-1.737-0.333V4.202
		h18.655v1.873c-1.098,0.132-1.918,0.259-2.459,0.382s-0.967,0.251-1.279,0.382c-0.295,0.132-0.475,0.271-0.541,0.419
		c-0.064,0.148-0.098,0.28-0.098,0.395c0,0.23,0.027,0.452,0.086,0.665c0.057,0.214,0.119,0.46,0.186,0.74
		c0.393,1.28,1.189,3.709,2.391,7.287c1.197,3.577,2.678,8.016,4.436,13.317l7.971-25.458h5.229l9.207,26.269
		c1.361-4.222,2.451-7.672,3.264-10.349c0.812-2.678,1.498-4.969,2.057-6.875c0.33-1.166,0.592-2.144,0.789-2.932
		s0.297-1.47,0.297-2.045c0-0.345-0.162-0.641-0.48-0.887c-0.32-0.247-0.752-0.459-1.293-0.641
		c-0.457-0.148-1.051-0.267-1.781-0.358c-0.729-0.09-1.363-0.16-1.904-0.209V4.202h14.072V6.173z"/>
	<linearGradient id="SVGID_13_" gradientUnits="userSpaceOnUse" x1="439.0967" y1="14.0103" x2="439.0967" y2="39.96">
		<stop  offset="0" style="stop-color:#3C2415"/>
		<stop  offset="0.5" style="stop-color:#A97C50"/>
		<stop  offset="1" style="stop-color:#603913"/>
	</linearGradient>
	<path fill="url(#SVGID_13_)" stroke="#3C2415" stroke-width="2" stroke-miterlimit="10" d="M449.645,17.632
		c1.215,1.134,2.143,2.489,2.783,4.066c0.643,1.577,0.963,3.287,0.963,5.126c0,1.824-0.318,3.545-0.949,5.163
		c-0.633,1.618-1.557,3.002-2.773,4.152c-1.297,1.232-2.846,2.177-4.645,2.834s-3.857,0.986-6.174,0.986
		c-2.004,0-3.85-0.288-5.531-0.862c-1.686-0.575-3.176-1.438-4.475-2.588c-1.248-1.1-2.234-2.46-2.957-4.079
		c-0.723-1.618-1.084-3.429-1.084-5.434c0-1.972,0.316-3.726,0.949-5.262s1.58-2.904,2.846-4.104
		c1.215-1.149,2.715-2.041,4.498-2.673s3.773-0.949,5.977-0.949c2.299,0,4.324,0.316,6.074,0.949S448.395,16.483,449.645,17.632z
		 M443.336,34.711c0.359-0.92,0.627-2.037,0.801-3.352c0.172-1.313,0.258-2.842,0.258-4.583c0-1.15-0.082-2.465-0.246-3.943
		s-0.412-2.645-0.74-3.499c-0.393-1.035-0.939-1.849-1.639-2.44c-0.697-0.592-1.58-0.888-2.648-0.888
		c-1.166,0-2.1,0.321-2.797,0.961c-0.699,0.641-1.236,1.47-1.615,2.489c-0.344,0.936-0.582,2.033-0.715,3.29
		c-0.131,1.257-0.197,2.568-0.197,3.931c0,1.791,0.059,3.274,0.174,4.449c0.115,1.174,0.395,2.353,0.838,3.536
		c0.377,1.019,0.92,1.823,1.627,2.415c0.705,0.592,1.602,0.888,2.686,0.888c0.986,0,1.832-0.275,2.539-0.826
		C442.366,36.588,442.924,35.779,443.336,34.711z"/>
	<linearGradient id="SVGID_14_" gradientUnits="userSpaceOnUse" x1="463.3833" y1="1.0229" x2="463.3833" y2="39.1714">
		<stop  offset="0" style="stop-color:#3C2415"/>
		<stop  offset="0.5" style="stop-color:#A97C50"/>
		<stop  offset="1" style="stop-color:#603913"/>
	</linearGradient>
	<path fill="url(#SVGID_14_)" stroke="#3C2415" stroke-width="2" stroke-miterlimit="10" d="M471.627,39.171h-15.525v-1.799
		c0.428-0.032,0.846-0.074,1.252-0.123c0.404-0.049,0.766-0.131,1.078-0.247c0.529-0.197,0.891-0.48,1.08-0.85
		c0.189-0.37,0.285-0.858,0.285-1.466V7.381c0-0.624-0.127-1.203-0.381-1.737c-0.256-0.534-0.598-0.94-1.023-1.22
		c-0.33-0.213-0.826-0.418-1.492-0.616c-0.664-0.197-1.252-0.312-1.762-0.345V1.664l12.42-0.641l0.371,0.394v32.949
		c0,0.608,0.107,1.101,0.322,1.479s0.562,0.674,1.043,0.887c0.33,0.148,0.678,0.279,1.041,0.395
		c0.363,0.115,0.795,0.196,1.291,0.246V39.171z"/>
	<linearGradient id="SVGID_15_" gradientUnits="userSpaceOnUse" x1="484.9595" y1="1.0229" x2="484.9595" y2="39.1714">
		<stop  offset="0" style="stop-color:#3C2415"/>
		<stop  offset="0.5" style="stop-color:#A97C50"/>
		<stop  offset="1" style="stop-color:#603913"/>
	</linearGradient>
	<path fill="url(#SVGID_15_)" stroke="#3C2415" stroke-width="2" stroke-miterlimit="10" d="M497.256,5.212
		c0,0.411-0.066,0.862-0.197,1.355c-0.131,0.493-0.346,0.911-0.641,1.256c-0.346,0.411-0.732,0.724-1.158,0.937
		c-0.428,0.214-1.068,0.32-1.922,0.32c-1.299,0-2.316-0.452-3.057-1.355c-0.74-0.903-1.527-2.406-2.365-4.509
		c-0.658,0.278-1.191,1-1.602,2.164c-0.412,1.164-0.617,3.664-0.617,7.5v1.943h6.803v2.686h-6.754v16.959
		c0,0.64,0.148,1.137,0.445,1.489c0.295,0.353,0.68,0.611,1.158,0.775c0.395,0.131,0.912,0.258,1.553,0.381
		c0.639,0.124,1.215,0.209,1.725,0.258v1.799h-16.66v-1.799c0.43-0.032,0.848-0.073,1.254-0.123
		c0.404-0.049,0.764-0.131,1.078-0.246c0.529-0.197,0.889-0.48,1.08-0.849c0.189-0.369,0.285-0.857,0.285-1.465v-17.18h-5.002
		v-2.686h5.002c0-1.754,0.254-3.457,0.764-5.104s1.297-3.12,2.365-4.416c1.035-1.279,2.398-2.312,4.092-3.099
		c1.691-0.787,3.68-1.181,5.963-1.181c2.037,0,3.615,0.386,4.732,1.158C496.698,2.953,497.256,3.964,497.256,5.212z"/>
	<linearGradient id="SVGID_16_" gradientUnits="userSpaceOnUse" x1="526.2993" y1="3.2407" x2="526.2993" y2="40.0337">
		<stop  offset="0" style="stop-color:#3C2415"/>
		<stop  offset="0.5" style="stop-color:#A97C50"/>
		<stop  offset="1" style="stop-color:#603913"/>
	</linearGradient>
	<path fill="url(#SVGID_16_)" stroke="#3C2415" stroke-width="2" stroke-miterlimit="10" d="M545.731,39.171h-14.49
		c-0.395-0.444-0.904-1.023-1.527-1.739c-0.625-0.715-1.16-1.352-1.604-1.912c-1.74,1.611-3.479,2.767-5.211,3.465
		c-1.734,0.698-3.578,1.047-5.533,1.047c-3.072,0-5.59-0.831-7.553-2.49c-1.963-1.66-2.945-3.822-2.945-6.486
		c0-1.331,0.176-2.474,0.529-3.428c0.354-0.953,0.926-1.907,1.713-2.86c0.756-0.921,1.691-1.747,2.811-2.478
		c1.117-0.732,2.373-1.418,3.77-2.06c-1.479-1.874-2.51-3.469-3.092-4.784c-0.584-1.315-0.875-2.664-0.875-4.045
		c0-2.367,0.984-4.319,2.957-5.856c1.971-1.537,4.328-2.306,7.072-2.306c2.562,0,4.641,0.608,6.234,1.825
		c1.594,1.217,2.391,2.828,2.391,4.833c0,1.743-0.477,3.3-1.43,4.673s-2.537,2.717-4.756,4.032c1.791,2.302,3.176,4.033,4.152,5.192
		c0.979,1.159,2.279,2.684,3.906,4.574c1.035-1.531,1.812-2.938,2.328-4.222c0.518-1.284,0.777-2.362,0.777-3.234
		c0-0.494-0.365-0.894-1.098-1.198c-0.73-0.305-1.762-0.588-3.092-0.852v-1.873h13.775v1.873c-1.494,0.132-2.6,0.313-3.314,0.543
		s-1.416,0.7-2.105,1.407c-0.297,0.297-0.662,0.819-1.098,1.567c-0.436,0.749-0.852,1.469-1.244,2.16
		c-0.477,0.839-0.986,1.72-1.529,2.641c-0.541,0.922-1.199,1.885-1.971,2.888c1.512,1.775,2.756,3.104,3.734,3.983
		c0.977,0.88,1.777,1.484,2.402,1.813c0.705,0.378,1.602,0.678,2.686,0.9c1.084,0.223,2.16,0.366,3.229,0.432V39.171z
		 M526.805,33.919c-1.381-1.661-2.986-3.592-4.818-5.795s-3.537-4.3-5.113-6.289c-0.871,0.855-1.5,1.854-1.885,2.998
		c-0.387,1.143-0.58,2.29-0.58,3.44c0,2.188,0.697,3.972,2.094,5.353s3.172,2.072,5.324,2.072c1.002,0,1.873-0.127,2.611-0.383
		C525.178,35.059,525.967,34.594,526.805,33.919z M526.631,10.282c0-1.443-0.348-2.58-1.047-3.408
		c-0.697-0.829-1.605-1.243-2.723-1.243c-1.068,0-1.932,0.341-2.588,1.022c-0.656,0.68-0.986,1.571-0.986,2.67
		c0,0.952,0.305,2.03,0.912,3.236s1.545,2.67,2.809,4.393c1.25-0.869,2.166-1.882,2.748-3.039
		C526.34,12.756,526.631,11.546,526.631,10.282z"/>
	<linearGradient id="SVGID_17_" gradientUnits="userSpaceOnUse" x1="583.6333" y1="4.2017" x2="583.6333" y2="39.1714">
		<stop  offset="0" style="stop-color:#3C2415"/>
		<stop  offset="0.5" style="stop-color:#A97C50"/>
		<stop  offset="1" style="stop-color:#603913"/>
	</linearGradient>
	<path fill="url(#SVGID_17_)" stroke="#3C2415" stroke-width="2" stroke-miterlimit="10" d="M608.081,39.171h-18.951V37.25
		c0.559-0.049,1.244-0.131,2.057-0.247c0.814-0.114,1.369-0.237,1.664-0.369c0.607-0.247,1.043-0.583,1.307-1.011
		c0.262-0.427,0.395-0.969,0.395-1.626V7.874l-12.027,30.731h-3.104c-0.148-0.542-0.516-1.618-1.098-3.228
		c-0.584-1.61-1.057-2.899-1.418-3.869l-8.846-24.028v21.268c0,2.038,0.135,3.585,0.406,4.646c0.271,1.06,0.711,1.836,1.318,2.329
		c0.41,0.345,1.146,0.674,2.205,0.986c1.061,0.312,1.803,0.493,2.23,0.542v1.922h-15.033V37.25c0.41-0.049,1.08-0.161,2.008-0.333
		c0.93-0.173,1.689-0.472,2.281-0.9c0.656-0.459,1.1-1.236,1.33-2.329c0.23-1.092,0.344-2.649,0.344-4.67V11.694
		c0-1.052-0.131-1.927-0.393-2.625c-0.264-0.698-0.656-1.252-1.184-1.664c-0.656-0.509-1.33-0.837-2.02-0.986
		c-0.691-0.147-1.389-0.247-2.096-0.296V4.202h16.113l8.621,23.041l7.264-18.699c0.246-0.691,0.486-1.513,0.715-2.466
		c0.23-0.954,0.354-1.579,0.371-1.875h15.49v1.922c-0.527,0.034-1.076,0.099-1.652,0.197c-0.576,0.099-1.125,0.23-1.65,0.395
		c-0.641,0.213-1.064,0.551-1.27,1.01c-0.205,0.46-0.309,0.97-0.309,1.528v24.767c0,0.591,0.104,1.088,0.309,1.491
		c0.205,0.402,0.629,0.751,1.27,1.047c0.328,0.148,0.865,0.288,1.613,0.419c0.748,0.132,1.326,0.222,1.738,0.271V39.171z"/>
	<linearGradient id="SVGID_18_" gradientUnits="userSpaceOnUse" x1="626.02" y1="14.0103" x2="626.02" y2="39.96">
		<stop  offset="0" style="stop-color:#3C2415"/>
		<stop  offset="0.5" style="stop-color:#A97C50"/>
		<stop  offset="1" style="stop-color:#603913"/>
	</linearGradient>
	<path fill="url(#SVGID_18_)" stroke="#3C2415" stroke-width="2" stroke-miterlimit="10" d="M636.569,17.632
		c1.215,1.134,2.143,2.489,2.785,4.066c0.641,1.577,0.959,3.287,0.959,5.126c0,1.824-0.314,3.545-0.947,5.163
		s-1.557,3.002-2.771,4.152c-1.299,1.232-2.848,2.177-4.646,2.834s-3.857,0.986-6.174,0.986c-2.004,0-3.848-0.288-5.531-0.862
		c-1.686-0.575-3.176-1.438-4.473-2.588c-1.25-1.1-2.236-2.46-2.959-4.079c-0.723-1.618-1.084-3.429-1.084-5.434
		c0-1.972,0.316-3.726,0.949-5.262s1.582-2.904,2.846-4.104c1.215-1.149,2.715-2.041,4.498-2.673
		c1.781-0.632,3.773-0.949,5.977-0.949c2.299,0,4.324,0.316,6.074,0.949S635.319,16.483,636.569,17.632z M630.26,34.711
		c0.359-0.92,0.627-2.037,0.801-3.352c0.172-1.313,0.258-2.842,0.258-4.583c0-1.15-0.082-2.465-0.246-3.943s-0.41-2.645-0.74-3.499
		c-0.395-1.035-0.939-1.849-1.639-2.44c-0.697-0.592-1.58-0.888-2.648-0.888c-1.166,0-2.1,0.321-2.797,0.961
		c-0.699,0.641-1.236,1.47-1.615,2.489c-0.344,0.936-0.582,2.033-0.715,3.29c-0.131,1.257-0.195,2.568-0.195,3.931
		c0,1.791,0.057,3.274,0.172,4.449c0.115,1.174,0.395,2.353,0.838,3.536c0.377,1.019,0.92,1.823,1.625,2.415
		c0.707,0.592,1.604,0.888,2.688,0.888c0.986,0,1.832-0.275,2.539-0.826C629.29,36.588,629.848,35.779,630.26,34.711z"/>
	<linearGradient id="SVGID_19_" gradientUnits="userSpaceOnUse" x1="658.1069" y1="14.0103" x2="658.1069" y2="39.96">
		<stop  offset="0" style="stop-color:#3C2415"/>
		<stop  offset="0.5" style="stop-color:#A97C50"/>
		<stop  offset="1" style="stop-color:#603913"/>
	</linearGradient>
	<path fill="url(#SVGID_19_)" stroke="#3C2415" stroke-width="2" stroke-miterlimit="10" d="M668.655,17.632
		c1.217,1.134,2.145,2.489,2.785,4.066s0.961,3.287,0.961,5.126c0,1.824-0.316,3.545-0.949,5.163s-1.557,3.002-2.771,4.152
		c-1.299,1.232-2.848,2.177-4.646,2.834s-3.855,0.986-6.172,0.986c-2.006,0-3.85-0.288-5.533-0.862
		c-1.686-0.575-3.176-1.438-4.473-2.588c-1.25-1.1-2.234-2.46-2.957-4.079c-0.723-1.618-1.086-3.429-1.086-5.434
		c0-1.972,0.318-3.726,0.949-5.262c0.633-1.536,1.582-2.904,2.848-4.104c1.215-1.149,2.715-2.041,4.496-2.673
		c1.783-0.632,3.775-0.949,5.977-0.949c2.301,0,4.324,0.316,6.074,0.949S667.407,16.483,668.655,17.632z M662.346,34.711
		c0.361-0.92,0.629-2.037,0.801-3.352c0.172-1.313,0.26-2.842,0.26-4.583c0-1.15-0.082-2.465-0.246-3.943
		c-0.166-1.479-0.412-2.645-0.74-3.499c-0.395-1.035-0.941-1.849-1.639-2.44c-0.699-0.592-1.582-0.888-2.65-0.888
		c-1.166,0-2.1,0.321-2.797,0.961s-1.236,1.47-1.613,2.489c-0.346,0.936-0.584,2.033-0.715,3.29
		c-0.133,1.257-0.197,2.568-0.197,3.931c0,1.791,0.059,3.274,0.172,4.449c0.115,1.174,0.395,2.353,0.838,3.536
		c0.379,1.019,0.92,1.823,1.627,2.415c0.705,0.592,1.602,0.888,2.686,0.888c0.986,0,1.832-0.275,2.539-0.826
		S661.936,35.779,662.346,34.711z"/>
	<linearGradient id="SVGID_20_" gradientUnits="userSpaceOnUse" x1="687.1128" y1="14.0591" x2="687.1128" y2="40.0093">
		<stop  offset="0" style="stop-color:#3C2415"/>
		<stop  offset="0.5" style="stop-color:#A97C50"/>
		<stop  offset="1" style="stop-color:#603913"/>
	</linearGradient>
	<path fill="url(#SVGID_20_)" stroke="#3C2415" stroke-width="2" stroke-miterlimit="10" d="M686.989,40.009
		c-1.594,0-3.15-0.234-4.67-0.703c-1.52-0.468-2.697-0.965-3.537-1.491l-0.738,1.676h-1.922l-0.32-9.192h1.799
		c0.246,0.739,0.656,1.573,1.232,2.501c0.574,0.928,1.232,1.762,1.971,2.501c0.771,0.74,1.656,1.364,2.65,1.873
		c0.994,0.51,2.057,0.764,3.191,0.764c1.494,0,2.607-0.291,3.338-0.875c0.732-0.583,1.098-1.482,1.098-2.698
		c0-0.656-0.164-1.199-0.492-1.626c-0.33-0.428-0.781-0.797-1.355-1.109c-0.643-0.329-1.344-0.607-2.107-0.838
		c-0.766-0.229-1.705-0.509-2.822-0.838c-1.117-0.329-2.074-0.661-2.871-0.998c-0.797-0.336-1.623-0.866-2.477-1.589
		c-0.74-0.641-1.332-1.413-1.773-2.317c-0.443-0.903-0.666-1.979-0.666-3.228c0-2.317,0.973-4.19,2.92-5.619
		s4.498-2.144,7.652-2.144c1.494,0,2.871,0.152,4.127,0.456c1.258,0.305,2.312,0.637,3.168,0.999l0.518-1.455h1.871l0.395,8.404
		h-1.725c-0.574-1.708-1.561-3.183-2.957-4.423s-2.9-1.861-4.51-1.861c-1.266,0-2.26,0.263-2.982,0.789s-1.084,1.257-1.084,2.193
		c0,1.249,0.529,2.152,1.588,2.711c1.057,0.559,2.537,1.084,4.439,1.577c2.936,0.756,5.086,1.787,6.445,3.093
		c1.361,1.306,2.043,2.97,2.043,4.99c0,2.694-1.057,4.781-3.166,6.26C693.147,39.27,690.391,40.009,686.989,40.009z"/>
	<linearGradient id="SVGID_21_" gradientUnits="userSpaceOnUse" x1="714.8618" y1="14.0103" x2="714.8618" y2="39.96">
		<stop  offset="0" style="stop-color:#3C2415"/>
		<stop  offset="0.5" style="stop-color:#A97C50"/>
		<stop  offset="1" style="stop-color:#603913"/>
	</linearGradient>
	<path fill="url(#SVGID_21_)" stroke="#3C2415" stroke-width="2" stroke-miterlimit="10" d="M727.948,33.281
		c-0.574,0.937-1.268,1.82-2.082,2.649c-0.812,0.83-1.736,1.541-2.771,2.132c-1.102,0.625-2.215,1.097-3.34,1.417
		s-2.42,0.48-3.881,0.48c-2.434,0-4.531-0.345-6.297-1.035c-1.768-0.689-3.225-1.618-4.375-2.785
		c-1.15-1.166-2.008-2.542-2.574-4.128c-0.566-1.585-0.852-3.306-0.852-5.163c0-1.676,0.309-3.282,0.926-4.818
		c0.615-1.536,1.49-2.903,2.623-4.103c1.117-1.167,2.525-2.111,4.227-2.834c1.701-0.723,3.604-1.084,5.705-1.084
		c2.301,0,4.189,0.279,5.668,0.837c1.479,0.559,2.703,1.331,3.672,2.317c0.938,0.937,1.619,2.042,2.047,3.314
		c0.426,1.273,0.641,2.608,0.641,4.004v1.602h-16.66c0,3.368,0.648,5.931,1.947,7.689c1.297,1.758,3.359,2.637,6.186,2.637
		c1.545,0,2.934-0.423,4.164-1.27c1.232-0.846,2.285-1.918,3.156-3.216L727.948,33.281z M718.536,23.917
		c0-0.985-0.051-1.996-0.148-3.031c-0.1-1.035-0.271-1.88-0.518-2.538c-0.279-0.772-0.662-1.355-1.146-1.749
		c-0.484-0.395-1.098-0.592-1.836-0.592c-1.266,0-2.275,0.641-3.031,1.922c-0.756,1.282-1.166,3.311-1.232,6.087L718.536,23.917z"/>
	<linearGradient id="SVGID_22_" gradientUnits="userSpaceOnUse" x1="757.9282" y1="3.2407" x2="757.9282" y2="40.1328">
		<stop  offset="0" style="stop-color:#3C2415"/>
		<stop  offset="0.5" style="stop-color:#A97C50"/>
		<stop  offset="1" style="stop-color:#603913"/>
	</linearGradient>
	<path fill="url(#SVGID_22_)" stroke="#3C2415" stroke-width="2" stroke-miterlimit="10" d="M758.063,40.133
		c-2.135,0-4.129-0.268-5.977-0.801s-3.412-1.162-4.695-1.885l-1.699,1.725h-2.096l-0.318-12.642h2.119
		c0.475,1.202,1.084,2.469,1.822,3.803c0.74,1.334,1.594,2.527,2.564,3.582c1,1.104,2.121,2,3.363,2.692
		c1.24,0.692,2.689,1.037,4.35,1.037c2.234,0,3.947-0.546,5.139-1.64c1.189-1.094,1.787-2.471,1.787-4.131
		c0-1.365-0.506-2.512-1.516-3.441c-1.012-0.929-2.576-1.731-4.695-2.408c-1.381-0.445-2.65-0.858-3.809-1.238
		c-1.158-0.379-2.246-0.767-3.266-1.163c-2.348-0.938-4.094-2.278-5.236-4.022s-1.711-3.693-1.711-5.848
		c0-1.366,0.295-2.678,0.887-3.936c0.59-1.258,1.453-2.389,2.588-3.393c1.084-0.937,2.471-1.702,4.164-2.294
		c1.691-0.592,3.531-0.888,5.52-0.888c1.939,0,3.754,0.271,5.447,0.813c1.691,0.542,3.021,1.084,3.992,1.626l1.504-1.479h2.143
		l0.197,11.928h-2.119c-0.492-1.285-1.072-2.598-1.736-3.94c-0.666-1.342-1.369-2.458-2.107-3.347
		c-0.807-0.955-1.734-1.716-2.785-2.285s-2.283-0.852-3.697-0.852c-1.773,0-3.225,0.502-4.35,1.505
		c-1.125,1.004-1.688,2.246-1.688,3.728c0,1.399,0.488,2.542,1.467,3.431c0.977,0.889,2.5,1.67,4.57,2.345
		c1.217,0.411,2.455,0.822,3.723,1.234c1.264,0.411,2.389,0.806,3.375,1.184c2.383,0.921,4.193,2.193,5.434,3.812
		c1.24,1.621,1.861,3.632,1.861,6.034c0,1.513-0.354,2.978-1.061,4.393c-0.705,1.414-1.658,2.591-2.857,3.528
		c-1.314,1.037-2.834,1.834-4.561,2.394C762.375,39.853,760.364,40.133,758.063,40.133z"/>
	<linearGradient id="SVGID_23_" gradientUnits="userSpaceOnUse" x1="784.3335" y1="7.356" x2="784.3335" y2="39.8364">
		<stop  offset="0" style="stop-color:#3C2415"/>
		<stop  offset="0.5" style="stop-color:#A97C50"/>
		<stop  offset="1" style="stop-color:#603913"/>
	</linearGradient>
	<path fill="url(#SVGID_23_)" stroke="#3C2415" stroke-width="2" stroke-miterlimit="10" d="M794.215,38.038
		c-1.051,0.46-2.176,0.875-3.375,1.245s-2.662,0.554-4.387,0.554c-2.564,0-4.465-0.624-5.705-1.87
		c-1.24-1.248-1.861-3.028-1.861-5.342V17.509h-4.436v-2.686h4.533V7.356h7.986v7.467h6.926v2.686h-6.877v13.487
		c0,1.92,0.268,3.281,0.803,4.085c0.537,0.804,1.498,1.206,2.883,1.206c0.443,0,1.062-0.032,1.854-0.098
		c0.791-0.065,1.344-0.139,1.656-0.222V38.038z"/>
	<linearGradient id="SVGID_24_" gradientUnits="userSpaceOnUse" x1="811.4907" y1="14.4292" x2="811.4907" y2="39.9106">
		<stop  offset="0" style="stop-color:#3C2415"/>
		<stop  offset="0.5" style="stop-color:#A97C50"/>
		<stop  offset="1" style="stop-color:#603913"/>
	</linearGradient>
	<path fill="url(#SVGID_24_)" stroke="#3C2415" stroke-width="2" stroke-miterlimit="10" d="M828.077,38.654l-11.756,0.715
		l-0.369-0.345v-3.228h-0.148c-0.557,0.509-1.102,1.006-1.635,1.491c-0.535,0.485-1.17,0.924-1.908,1.318
		c-0.838,0.444-1.629,0.772-2.375,0.986c-0.746,0.213-1.832,0.32-3.26,0.32c-2.479,0-4.377-0.748-5.697-2.242
		c-1.32-1.495-1.98-3.606-1.98-6.334V20.245c0-0.641-0.123-1.163-0.367-1.565c-0.246-0.402-0.572-0.76-0.98-1.072
		c-0.326-0.247-0.752-0.423-1.273-0.53c-0.523-0.107-0.996-0.176-1.422-0.209V15.07l11.906-0.641l0.27,0.369v16.389
		c0,1.692,0.322,2.941,0.973,3.746c0.648,0.805,1.541,1.207,2.674,1.207c1.166,0,2.215-0.304,3.141-0.912
		c0.93-0.608,1.607-1.257,2.035-1.947V19.999c0-0.559-0.107-1.06-0.322-1.503c-0.213-0.443-0.525-0.805-0.936-1.084
		c-0.295-0.197-0.719-0.328-1.27-0.394s-1.113-0.115-1.688-0.148V15.07l11.977-0.641l0.371,0.369v19.025
		c0,0.575,0.113,1.064,0.342,1.466c0.229,0.403,0.562,0.744,1.006,1.023c0.309,0.197,0.713,0.333,1.211,0.406
		s0.992,0.12,1.482,0.136V38.654z"/>
	<linearGradient id="SVGID_25_" gradientUnits="userSpaceOnUse" x1="846.1782" y1="1.0229" x2="846.1782" y2="39.96">
		<stop  offset="0" style="stop-color:#3C2415"/>
		<stop  offset="0.5" style="stop-color:#A97C50"/>
		<stop  offset="1" style="stop-color:#603913"/>
	</linearGradient>
	<path fill="url(#SVGID_25_)" stroke="#3C2415" stroke-width="2" stroke-miterlimit="10" d="M861.938,38.654l-12.15,0.715
		l-0.369-0.345v-2.267l-0.172-0.049c-0.805,0.871-1.891,1.63-3.262,2.279c-1.369,0.649-2.752,0.974-4.146,0.974
		c-3.314,0-6.047-1.232-8.195-3.697c-2.15-2.464-3.225-5.651-3.225-9.562c0-3.467,1.201-6.44,3.605-8.921
		c2.402-2.481,5.312-3.722,8.725-3.722c1.346,0,2.609,0.152,3.791,0.456c1.182,0.305,2.125,0.662,2.83,1.072V7.528
		c0-0.607-0.123-1.179-0.371-1.712c-0.246-0.534-0.574-0.949-0.984-1.244c-0.51-0.361-1.146-0.62-1.91-0.776
		s-1.531-0.267-2.305-0.333V1.664l13.332-0.641l0.371,0.394v32.308c0,0.625,0.102,1.15,0.305,1.577
		c0.205,0.428,0.537,0.764,0.994,1.011c0.342,0.181,0.846,0.312,1.506,0.394c0.662,0.083,1.205,0.132,1.631,0.148V38.654z
		 M849.37,34.267V20.343c-0.115-0.377-0.275-0.796-0.48-1.256c-0.205-0.46-0.486-0.896-0.848-1.306
		c-0.328-0.345-0.766-0.649-1.314-0.912c-0.549-0.263-1.168-0.395-1.857-0.395c-1.639,0-2.982,0.929-4.031,2.785
		c-1.049,1.857-1.574,4.477-1.574,7.861c0,1.331,0.096,2.526,0.283,3.585c0.189,1.06,0.521,2.025,0.996,2.896
		s1.086,1.552,1.832,2.045c0.744,0.493,1.643,0.739,2.691,0.739c1,0,1.828-0.193,2.482-0.579
		C848.206,35.422,848.811,34.908,849.37,34.267z"/>
	<linearGradient id="SVGID_26_" gradientUnits="userSpaceOnUse" x1="876.4282" y1="14.7251" x2="876.4282" y2="50.1133">
		<stop  offset="0" style="stop-color:#3C2415"/>
		<stop  offset="0.5" style="stop-color:#A97C50"/>
		<stop  offset="1" style="stop-color:#603913"/>
	</linearGradient>
	<path fill="url(#SVGID_26_)" stroke="#3C2415" stroke-width="2" stroke-miterlimit="10" d="M891.411,16.523
		c-0.738,0.115-1.457,0.395-2.154,0.838c-0.699,0.444-1.279,1.134-1.738,2.07c-1.414,2.99-2.867,6.173-4.363,9.55
		c-1.494,3.376-3.152,7.028-4.979,10.954c-1.018,2.202-2.004,3.959-2.955,5.274c-0.953,1.314-1.85,2.324-2.688,3.031
		c-0.787,0.657-1.568,1.134-2.34,1.429c-0.773,0.296-1.553,0.444-2.342,0.444c-1.561,0-2.822-0.436-3.783-1.306
		s-1.441-1.849-1.441-2.933c0-0.46,0.053-0.887,0.16-1.281c0.107-0.395,0.332-0.805,0.678-1.232
		c0.262-0.361,0.668-0.669,1.219-0.924c0.551-0.255,1.17-0.382,1.859-0.382c0.92,0,1.799,0.32,2.635,0.961
		c0.838,0.641,1.707,1.528,2.611,2.662c0.541-0.544,1.211-1.355,2.008-2.434c0.795-1.079,1.383-2.187,1.76-3.323
		c-1.953-4.104-3.686-7.663-5.195-10.676s-3.201-6.374-5.072-10.084c-0.412-0.789-0.961-1.4-1.652-1.836
		c-0.689-0.436-1.42-0.702-2.191-0.801v-1.798h15.08v1.798c-0.557,0.017-1.199,0.14-1.928,0.37c-0.73,0.23-1.096,0.526-1.096,0.887
		c0,0.131,0.025,0.275,0.074,0.431c0.049,0.156,0.139,0.382,0.271,0.677c0.557,1.147,1.35,2.74,2.375,4.78s2.219,4.428,3.582,7.164
		c1.016-2.326,1.881-4.328,2.596-6.008c0.713-1.679,1.406-3.329,2.078-4.951c0.164-0.41,0.258-0.733,0.283-0.972
		c0.025-0.238,0.037-0.398,0.037-0.48c0-0.296-0.145-0.555-0.43-0.776c-0.287-0.222-0.629-0.415-1.021-0.579
		c-0.408-0.164-0.803-0.287-1.18-0.37c-0.377-0.082-0.689-0.139-0.936-0.173v-1.798h10.178V16.523z"/>
</g>
</svg>
