<?xml version="1.0" encoding="utf-8"?>
<!-- Generator: Adobe Illustrator 16.0.0, SVG Export Plug-In . SVG Version: 6.00 Build 0)  -->
<!DOCTYPE svg PUBLIC "-//W3C//DTD SVG 1.0//EN" "http://www.w3.org/TR/2001/REC-SVG-20010904/DTD/svg10.dtd">
<svg version="1.0" id="Layer_1" xmlns="http://www.w3.org/2000/svg" xmlns:xlink="http://www.w3.org/1999/xlink" x="0px" y="0px"
	 width="13.932px" height="205.872px" viewBox="0 0 13.932 205.872" enable-background="new 0 0 13.932 205.872"
	 xml:space="preserve">
<g>
	<linearGradient id="SVGID_1_" gradientUnits="userSpaceOnUse" x1="52.4141" y1="181.6553" x2="-38.4824" y2="24.218">
		<stop  offset="0" style="stop-color:#603913"/>
		<stop  offset="0.1032" style="stop-color:#6B431C;stop-opacity:0.9794"/>
		<stop  offset="0.5255" style="stop-color:#986D42;stop-opacity:0.8949"/>
		<stop  offset="0.8363" style="stop-color:#B68C5F;stop-opacity:0.8327"/>
		<stop  offset="1" style="stop-color:#C49A6C;stop-opacity:0.8"/>
	</linearGradient>
	<path fill="url(#SVGID_1_)" d="M2,204.872c-0.552,0-1-0.447-1-1V2c0-0.552,0.448-1,1-1h9.932c0.553,0,1,0.448,1,1v201.872
		c0,0.553-0.447,1-1,1H2z"/>
	<path fill="#3C2415" d="M11.932,2v201.872H2V2H11.932 M11.932,0H2C0.896,0,0,0.896,0,2v201.872c0,1.104,0.896,2,2,2h9.932
		c1.104,0,2-0.896,2-2V2C13.932,0.896,13.036,0,11.932,0L11.932,0z"/>
</g>
</svg>
