<?xml version="1.0" encoding="utf-8"?>
<!-- Generator: Adobe Illustrator 16.0.0, SVG Export Plug-In . SVG Version: 6.00 Build 0)  -->
<!DOCTYPE svg PUBLIC "-//W3C//DTD SVG 1.0//EN" "http://www.w3.org/TR/2001/REC-SVG-20010904/DTD/svg10.dtd">
<svg version="1.0" id="Layer_1" xmlns="http://www.w3.org/2000/svg" xmlns:xlink="http://www.w3.org/1999/xlink" x="0px" y="0px"
	 width="69.783px" height="69.763px" viewBox="0 0 69.783 69.763" enable-background="new 0 0 69.783 69.763" xml:space="preserve">
<g>
	<linearGradient id="SVGID_1_" gradientUnits="userSpaceOnUse" x1="57.8525" y1="74.6514" x2="11.9302" y2="-4.8885">
		<stop  offset="0" style="stop-color:#603913"/>
		<stop  offset="0.1168" style="stop-color:#744B23"/>
		<stop  offset="0.2913" style="stop-color:#8F6439"/>
		<stop  offset="0.4676" style="stop-color:#A47A4D"/>
		<stop  offset="0.6441" style="stop-color:#B48A5D"/>
		<stop  offset="0.8213" style="stop-color:#BF9567"/>
		<stop  offset="1" style="stop-color:#C49A6C"/>
	</linearGradient>
	<path fill="url(#SVGID_1_)" d="M2,68.763c-0.552,0-1-0.447-1-1V2c0-0.552,0.448-1,1-1h65.783c0.553,0,1,0.448,1,1v65.763
		c0,0.553-0.447,1-1,1H2z"/>
	<path fill="#3C2415" d="M67.783,2v29.053v36.709H2V34.878V2H67.783 M67.783,0H2C0.896,0,0,0.896,0,2v32.878v32.885
		c0,1.104,0.896,2,2,2h65.783c1.104,0,2-0.896,2-2V31.053V2C69.783,0.896,68.888,0,67.783,0L67.783,0z"/>
</g>
<linearGradient id="SVGID_2_" gradientUnits="userSpaceOnUse" x1="696.752" y1="-952.2319" x2="713.5786" y2="-981.3766" gradientTransform="matrix(-4.371139e-08 1 -1 -4.371139e-08 -936.2612 -666.0776)">
	<stop  offset="0" style="stop-color:#603913"/>
	<stop  offset="0.0111" style="stop-color:#613A14"/>
	<stop  offset="1" style="stop-color:#C49A6C"/>
</linearGradient>
<polygon fill="url(#SVGID_2_)" stroke="#3C2415" stroke-width="2" stroke-linecap="round" stroke-linejoin="round" stroke-miterlimit="10" points="
	23.256,18.055 52.4,34.882 23.256,51.708 "/>
</svg>
