<?xml version="1.0" encoding="utf-8"?>
<!-- Generator: Adobe Illustrator 16.0.0, SVG Export Plug-In . SVG Version: 6.00 Build 0)  -->
<!DOCTYPE svg PUBLIC "-//W3C//DTD SVG 1.0//EN" "http://www.w3.org/TR/2001/REC-SVG-20010904/DTD/svg10.dtd">
<svg version="1.0" id="Layer_1" xmlns="http://www.w3.org/2000/svg" xmlns:xlink="http://www.w3.org/1999/xlink" x="0px" y="0px"
	 width="108.351px" height="49.816px" viewBox="0 0 108.351 49.816" enable-background="new 0 0 108.351 49.816"
	 xml:space="preserve">
<g>
	<g>
		<linearGradient id="SVGID_1_" gradientUnits="userSpaceOnUse" x1="76.7725" y1="64.0488" x2="31.5776" y2="-14.2309">
			<stop  offset="0" style="stop-color:#603913"/>
			<stop  offset="0.1168" style="stop-color:#744B23"/>
			<stop  offset="0.2913" style="stop-color:#8F6439"/>
			<stop  offset="0.4676" style="stop-color:#A47A4D"/>
			<stop  offset="0.6441" style="stop-color:#B48A5D"/>
			<stop  offset="0.8213" style="stop-color:#BF9567"/>
			<stop  offset="1" style="stop-color:#C49A6C"/>
		</linearGradient>
		<path fill="url(#SVGID_1_)" d="M4,47.816c-1.104,0-2-0.896-2-2V4c0-1.104,0.896-2,2-2h100.351c1.104,0,2,0.896,2,2v41.816
			c0,1.104-0.896,2-2,2H4z"/>
		<path fill="#3C2415" d="M104.351,4v18.476v23.341H4V24.908V4H104.351 M104.351,0H4C1.791,0,0,1.791,0,4v20.908v20.908
			c0,2.209,1.791,4,4,4h100.351c2.209,0,4-1.791,4-4V22.476V4C108.351,1.791,106.56,0,104.351,0L104.351,0z"/>
	</g>
	<g>
		<path fill="#3C2415" d="M49.183,16.311c-0.306,0.028-0.612,0.096-0.918,0.199s-0.606,0.234-0.902,0.393
			c-0.454,0.257-0.777,0.537-0.97,0.844c-0.192,0.306-0.367,0.675-0.524,1.109c-0.543,1.5-1.379,3.902-2.509,7.207
			c-1.13,3.306-2.307,6.739-3.529,10.3h-2.99l-5.529-15.6l-4.995,15.6h-2.986c-1.648-4.794-2.911-8.486-3.789-11.076
			s-1.618-4.764-2.22-6.52c-0.188-0.533-0.399-0.92-0.637-1.162c-0.236-0.241-0.542-0.485-0.917-0.732
			c-0.267-0.177-0.55-0.308-0.851-0.392c-0.302-0.084-0.649-0.15-1.044-0.2v-1.154h11.203v1.125
			c-0.66,0.079-1.152,0.155-1.477,0.229c-0.325,0.073-0.581,0.15-0.769,0.229c-0.177,0.079-0.286,0.162-0.325,0.251
			s-0.059,0.168-0.059,0.237c0,0.139,0.017,0.271,0.052,0.399c0.034,0.128,0.071,0.276,0.11,0.444
			c0.237,0.768,0.716,2.227,1.436,4.375c0.721,2.148,1.608,4.814,2.665,7.998l4.786-15.289h3.14L40.163,30.9
			c0.818-2.534,1.473-4.606,1.961-6.214c0.488-1.609,0.899-2.984,1.235-4.129c0.197-0.701,0.354-1.287,0.474-1.761
			c0.118-0.475,0.177-0.884,0.177-1.229c0-0.207-0.096-0.385-0.288-0.532c-0.192-0.148-0.45-0.276-0.775-0.385
			c-0.275-0.089-0.632-0.16-1.07-0.215c-0.438-0.054-0.819-0.097-1.144-0.125v-1.185h8.45V16.311z"/>
		<path fill="#3C2415" d="M64.588,23.191c0.73,0.681,1.288,1.495,1.673,2.442c0.385,0.946,0.577,1.974,0.577,3.078
			c0,1.095-0.19,2.129-0.57,3.1c-0.38,0.972-0.935,1.804-1.664,2.494c-0.78,0.74-1.71,1.307-2.79,1.702
			c-1.08,0.394-2.316,0.592-3.707,0.592c-1.204,0-2.312-0.173-3.322-0.518c-1.012-0.346-1.907-0.863-2.687-1.555
			c-0.75-0.661-1.342-1.478-1.775-2.449c-0.435-0.972-0.651-2.06-0.651-3.263c0-1.185,0.19-2.237,0.57-3.16
			c0.379-0.922,0.949-1.744,1.709-2.464c0.729-0.69,1.63-1.226,2.7-1.605c1.071-0.38,2.267-0.57,3.589-0.57
			c1.382,0,2.598,0.19,3.648,0.57S63.839,22.501,64.588,23.191z M60.8,33.447c0.217-0.552,0.377-1.224,0.48-2.013
			c0.104-0.789,0.156-1.707,0.156-2.753c0-0.69-0.05-1.479-0.148-2.367s-0.247-1.589-0.444-2.102
			c-0.236-0.622-0.564-1.11-0.983-1.466c-0.42-0.354-0.95-0.532-1.591-0.532c-0.701,0-1.261,0.192-1.68,0.577
			c-0.42,0.385-0.743,0.883-0.97,1.495c-0.207,0.562-0.351,1.22-0.429,1.976c-0.079,0.754-0.119,1.541-0.119,2.36
			c0,1.075,0.035,1.966,0.104,2.671c0.069,0.706,0.237,1.414,0.504,2.124c0.227,0.611,0.552,1.095,0.977,1.45
			c0.424,0.354,0.962,0.533,1.613,0.533c0.592,0,1.1-0.166,1.523-0.496C60.218,34.574,60.553,34.089,60.8,33.447z"/>
		<path fill="#3C2415" d="M77.789,36.126h-9.323v-1.08c0.258-0.02,0.509-0.045,0.752-0.074s0.459-0.079,0.648-0.148
			c0.317-0.118,0.533-0.288,0.647-0.511c0.114-0.222,0.172-0.515,0.172-0.88V17.035c0-0.375-0.077-0.723-0.229-1.044
			c-0.153-0.32-0.357-0.564-0.614-0.731c-0.197-0.129-0.496-0.252-0.896-0.37c-0.399-0.119-0.752-0.188-1.058-0.207v-1.081
			l7.458-0.385l0.223,0.237V33.24c0,0.364,0.064,0.661,0.193,0.888c0.129,0.228,0.338,0.404,0.626,0.533
			c0.198,0.088,0.407,0.168,0.625,0.236c0.219,0.069,0.478,0.118,0.775,0.148V36.126z"/>
		<path fill="#3C2415" d="M93.18,15.733c0,0.246-0.039,0.518-0.118,0.813s-0.207,0.548-0.385,0.755
			c-0.207,0.246-0.439,0.434-0.695,0.562c-0.257,0.129-0.642,0.193-1.154,0.193c-0.78,0-1.392-0.271-1.835-0.814
			c-0.444-0.542-0.918-1.445-1.421-2.708c-0.396,0.168-0.716,0.601-0.962,1.3c-0.247,0.698-0.37,2.2-0.37,4.504v1.167h4.084v1.612
			h-4.055v10.185c0,0.384,0.089,0.682,0.267,0.894s0.409,0.367,0.695,0.466c0.237,0.079,0.548,0.155,0.933,0.229
			c0.385,0.074,0.729,0.126,1.036,0.156v1.08H79.195v-1.08c0.258-0.02,0.509-0.045,0.752-0.074s0.459-0.079,0.647-0.148
			c0.318-0.117,0.534-0.287,0.648-0.509s0.172-0.515,0.172-0.88V23.117H78.41v-1.612h3.005c0-1.055,0.152-2.076,0.458-3.065
			s0.779-1.874,1.421-2.652c0.622-0.768,1.44-1.388,2.457-1.861c1.016-0.473,2.21-0.709,3.581-0.709c1.224,0,2.17,0.232,2.842,0.696
			C92.845,14.377,93.18,14.983,93.18,15.733z"/>
	</g>
</g>
</svg>
